<svg width="60" height="60" viewBox="0 0 60 60" fill="none" xmlns="http://www.w3.org/2000/svg">
<g filter="url(#filter0_d_0_1)">
<path d="M10 25C10 13.9543 18.9543 5 30 5C41.0457 5 50 13.9543 50 25C50 36.0457 41.0457 45 30 45C18.9543 45 10 36.0457 10 25Z" fill="white"/>
<path d="M10.5 25C10.5 14.2304 19.2304 5.5 30 5.5C40.7696 5.5 49.5 14.2304 49.5 25C49.5 35.7696 40.7696 44.5 30 44.5C19.2304 44.5 10.5 35.7696 10.5 25Z" stroke="#E9E9E9"/>
</g>
<g clip-path="url(#clip0_0_1)">
<mask id="mask0_0_1" style="mask-type:alpha" maskUnits="userSpaceOnUse" x="24" y="21" width="14" height="11">
<path d="M38 21H24V32H38V21Z" fill="white"/>
</mask>
<g mask="url(#mask0_0_1)">
<path d="M35.6667 28.2188C35.4917 28.2188 35.3459 28.1729 35.2292 28.0813C35.1125 27.9896 35.0542 27.875 35.0542 27.7375V26.8667H33.9459C33.7709 26.8667 33.625 26.8208 33.5084 26.7292C33.3917 26.6375 33.3334 26.5229 33.3334 26.3854C33.3334 26.2479 33.3917 26.1333 33.5084 26.0417C33.625 25.95 33.7709 25.9042 33.9459 25.9042H35.0542V25.0333C35.0542 24.8958 35.1125 24.7813 35.2292 24.6896C35.3459 24.5979 35.4917 24.5521 35.6667 24.5521C35.8417 24.5521 35.9875 24.5979 36.1042 24.6896C36.2209 24.7813 36.2792 24.8958 36.2792 25.0333V25.9042H37.3876C37.5626 25.9042 37.7084 25.95 37.8251 26.0417C37.9417 26.1333 38 26.2479 38 26.3854C38 26.5229 37.9417 26.6375 37.8251 26.7292C37.7084 26.8208 37.5626 26.8667 37.3876 26.8667H36.2792V27.7375C36.2792 27.875 36.2209 27.9896 36.1042 28.0813C35.9875 28.1729 35.8417 28.2188 35.6667 28.2188ZM30.3438 27.3708C29.673 27.3708 29.0968 27.1817 28.6154 26.8034C28.1343 26.4254 27.8938 25.9729 27.8938 25.4458C27.8938 24.9111 28.1343 24.4566 28.6154 24.0823C29.0968 23.708 29.673 23.5208 30.3438 23.5208C31.0244 23.5208 31.6051 23.708 32.0862 24.0823C32.5676 24.4566 32.8084 24.9111 32.8084 25.4458C32.8084 25.9729 32.5676 26.4254 32.0862 26.8034C31.6051 27.1817 31.0244 27.3708 30.3438 27.3708Z" fill="black"/>
<path d="M26.3214 29.1812C26.9588 28.3693 28.0862 27.875 29.3002 27.875H31.4391C32.6532 27.875 33.7805 28.3693 34.4179 29.1812L34.8138 29.6854C35.2933 30.2961 34.7341 31.0833 33.8209 31.0833H26.9185C26.0052 31.0833 25.4461 30.2961 25.9256 29.6854L26.3214 29.1812Z" fill="black"/>
</g>
</g>
<defs>
<filter id="filter0_d_0_1" x="0" y="0" width="60" height="60" filterUnits="userSpaceOnUse" color-interpolation-filters="sRGB">
<feFlood flood-opacity="0" result="BackgroundImageFix"/>
<feColorMatrix in="SourceAlpha" type="matrix" values="0 0 0 0 0 0 0 0 0 0 0 0 0 0 0 0 0 0 127 0" result="hardAlpha"/>
<feOffset dy="5"/>
<feGaussianBlur stdDeviation="5"/>
<feColorMatrix type="matrix" values="0 0 0 0 0.113725 0 0 0 0 0.278431 0 0 0 0 0.482353 0 0 0 0.04 0"/>
<feBlend mode="normal" in2="BackgroundImageFix" result="effect1_dropShadow_0_1"/>
<feBlend mode="normal" in="SourceGraphic" in2="effect1_dropShadow_0_1" result="shape"/>
</filter>
<clipPath id="clip0_0_1">
<rect width="14" height="11" fill="white" transform="translate(24 21)"/>
</clipPath>
</defs>
</svg>


