<svg width="24" height="24" viewBox="0 0 24 24" fill="none" xmlns="http://www.w3.org/2000/svg">
<g clip-path="url(#clip0_0_1)">
<path fill-rule="evenodd" clip-rule="evenodd" d="M7.08623 4.14711C7.55727 3.64242 8.34826 3.61514 8.85294 4.08619L16.3529 11.0862C16.6184 11.3339 16.763 11.6848 16.7491 12.0476C16.7353 12.4104 16.5644 12.7493 16.2809 12.9761L8.78091 18.9761C8.24184 19.4074 7.45522 19.32 7.02396 18.7809C6.5927 18.2418 6.6801 17.4552 7.21918 17.0239L13.5901 11.9272L7.14715 5.91382C6.64246 5.44278 6.61518 4.6518 7.08623 4.14711Z" fill="black"/>
</g>
<path fill-rule="evenodd" clip-rule="evenodd" d="M9.9526 5.76474C10.1489 5.42828 10.4784 5.41009 10.6887 5.72413L13.8137 10.3908C13.9243 10.5559 13.9846 10.7899 13.9788 11.0317C13.973 11.2736 13.9018 11.4995 13.7837 11.6507L10.6587 15.6507C10.4341 15.9383 10.1063 15.88 9.92665 15.5206C9.74696 15.1612 9.78337 14.6368 10.008 14.3493L12.6625 10.9515L9.97798 6.94255C9.76769 6.62852 9.75632 6.1012 9.9526 5.76474Z" fill="black"/>
<defs>
<clipPath id="clip0_0_1">
<rect width="24" height="24" fill="white"/>
</clipPath>
</defs>
</svg>
