<svg width="21" height="21" viewBox="0 0 21 21" fill="none" xmlns="http://www.w3.org/2000/svg">
<path fill-rule="evenodd" clip-rule="evenodd" d="M12.5682 14.5683C11.273 15.4708 9.6983 16 8 16C3.58172 16 0 12.4183 0 8C0 3.58172 3.58172 0 8 0C12.4183 0 16 3.58172 16 8C16 9.8177 15.3938 11.4937 14.3726 12.8371L19.7678 18.2323C20.2559 18.7205 20.2559 19.5119 19.7678 20.0001C19.2796 20.4883 18.4882 20.4883 18 20.0001L12.5682 14.5683ZM13.5 8C13.5 11.0376 11.0376 13.5 8 13.5C4.96243 13.5 2.5 11.0376 2.5 8C2.5 4.96243 4.96243 2.5 8 2.5C11.0376 2.5 13.5 4.96243 13.5 8Z" fill="black"/>
</svg>
