<svg width="18" height="18" viewBox="0 0 18 18" fill="none" xmlns="http://www.w3.org/2000/svg">
<path fill-rule="evenodd" clip-rule="evenodd" d="M15.2501 7.58467L9.00008 3.2097L2.75008 7.58467V15.25H5.25008V11.0833C5.25008 9.01225 6.92901 7.33333 9.00008 7.33333C11.0712 7.33333 12.7501 9.01225 12.7501 11.0833V15.25H15.2501V7.58467ZM17.3334 6.93388V16.5C17.3334 16.9603 16.9603 17.3333 16.5001 17.3333H10.6667V11.0833C10.6667 10.1628 9.92058 9.41667 9.00008 9.41667C8.07958 9.41667 7.33341 10.1628 7.33341 11.0833V17.3333H1.50008C1.03985 17.3333 0.666748 16.9603 0.666748 16.5V6.93388C0.666748 6.66195 0.799423 6.40713 1.0222 6.25119L8.52216 1.00119C8.80917 0.800333 9.191 0.800333 9.478 1.00119L16.978 6.25119C17.2007 6.40713 17.3334 6.66195 17.3334 6.93388Z" fill="black"/>
</svg>
