<svg width="60" height="60" viewBox="0 0 60 60" fill="none" xmlns="http://www.w3.org/2000/svg">
<g filter="url(#filter0_d_0_1)">
<path d="M10 25C10 13.9543 18.9543 5 30 5C41.0457 5 50 13.9543 50 25C50 36.0457 41.0457 45 30 45C18.9543 45 10 36.0457 10 25Z" fill="white"/>
<path d="M10.5 25C10.5 14.2304 19.2304 5.5 30 5.5C40.7696 5.5 49.5 14.2304 49.5 25C49.5 35.7696 40.7696 44.5 30 44.5C19.2304 44.5 10.5 35.7696 10.5 25Z" stroke="#E9E9E9"/>
</g>
<g clip-path="url(#clip0_0_1)">
<path fill-rule="evenodd" clip-rule="evenodd" d="M32.2122 27.3333L34.9999 29.3777V20.3333C34.9999 20.1492 34.8507 20 34.6666 20H25.3333C25.1492 20 24.9999 20.1492 24.9999 20.3333V27C24.9999 27.1841 25.1492 27.3333 25.3333 27.3333H32.2122ZM31.6666 29L35.6057 31.8887C36.0461 32.2116 36.6666 31.8971 36.6666 31.3511V20.3333C36.6666 19.2288 35.7712 18.3333 34.6666 18.3333H25.3333C24.2287 18.3333 23.3333 19.2288 23.3333 20.3333V27C23.3333 28.1046 24.2287 29 25.3333 29H31.6666Z" fill="black"/>
</g>
<defs>
<filter id="filter0_d_0_1" x="0" y="0" width="60" height="60" filterUnits="userSpaceOnUse" color-interpolation-filters="sRGB">
<feFlood flood-opacity="0" result="BackgroundImageFix"/>
<feColorMatrix in="SourceAlpha" type="matrix" values="0 0 0 0 0 0 0 0 0 0 0 0 0 0 0 0 0 0 127 0" result="hardAlpha"/>
<feOffset dy="5"/>
<feGaussianBlur stdDeviation="5"/>
<feColorMatrix type="matrix" values="0 0 0 0 0.113725 0 0 0 0 0.278431 0 0 0 0 0.482353 0 0 0 0.04 0"/>
<feBlend mode="normal" in2="BackgroundImageFix" result="effect1_dropShadow_0_1"/>
<feBlend mode="normal" in="SourceGraphic" in2="effect1_dropShadow_0_1" result="shape"/>
</filter>
<clipPath id="clip0_0_1">
<rect width="16" height="16" fill="white" transform="translate(22 17)"/>
</clipPath>
</defs>
</svg>
