<svg width="82" height="49" viewBox="0 0 82 49" fill="none" xmlns="http://www.w3.org/2000/svg">
<path d="M45.9434 43.9733C45.9434 46.715 43.6659 48.9376 40.8565 48.9376C38.047 48.9376 35.7695 46.715 35.7695 43.9733C35.7695 41.9484 38.5441 24.2831 39.995 15.1839C40.1527 14.1952 41.5603 14.1952 41.7179 15.1839C43.1688 24.2831 45.9434 41.9484 45.9434 43.9733Z" fill="#0D76D6"/>
<path d="M43.036 43.9682C43.036 45.1723 42.0599 46.1483 40.8559 46.1483C39.6519 46.1483 38.6758 45.1723 38.6758 43.9682C38.6758 42.7642 39.6519 41.7881 40.8559 41.7881C42.0599 41.7881 43.036 42.7642 43.036 43.9682Z" fill="#FAFAFA"/>
<path fill-rule="evenodd" clip-rule="evenodd" d="M3.76928 42.5583C3.7055 43.5876 2.87174 44.4187 1.84049 44.4187C0.79004 44.4187 -0.0612222 43.5568 0.00345779 42.5084C1.32918 21.0188 19.1777 4 41.0012 4C62.8114 4 80.6515 20.9981 81.9964 42.4694C82.0634 43.5393 81.1946 44.4187 80.1225 44.4187C79.0701 44.4187 78.2193 43.5703 78.1531 42.5199C76.951 23.4522 60.7597 8.35124 40.9624 8.35124C21.1518 8.35124 4.95199 23.4724 3.76928 42.5583Z" fill="#DEDEDE"/>
<path fill-rule="evenodd" clip-rule="evenodd" d="M1.84049 44.4187C2.87174 44.4187 3.7055 43.5876 3.76928 42.5583C4.95199 23.4724 21.1518 8.35124 40.9624 8.35124C60.7597 8.35124 76.951 23.4522 78.1531 42.5199C78.2193 43.5703 79.0701 44.4187 80.1225 44.4187C81.1946 44.4187 82.0634 43.5393 81.9964 42.4694C80.6515 20.9981 62.8114 4 41.0012 4C19.1777 4 1.32918 21.0188 0.00345779 42.5084C-0.0612222 43.5568 0.79004 44.4187 1.84049 44.4187Z" fill="#DEDEDE"/>
<path fill-rule="evenodd" clip-rule="evenodd" d="M16.6717 14.2079C15.9774 13.2756 16.1671 11.9524 17.1318 11.3038C23.9521 6.71888 32.1632 4.04346 40.9991 4.04346C49.8267 4.04346 58.0305 6.71378 64.847 11.2907C65.8229 11.946 66.0146 13.284 65.3126 14.2268C64.5897 15.1975 63.2075 15.3662 62.2237 14.6613C56.1932 10.3402 48.863 7.80666 40.9579 7.80666C33.0662 7.80666 25.7475 10.3316 19.7229 14.6393C18.7505 15.3346 17.3856 15.1667 16.6717 14.2079Z" fill="#0D76D6"/>
<path fill-rule="evenodd" clip-rule="evenodd" d="M15.164 8.37527C22.5481 3.4113 31.4412 0.514648 41.0001 0.514648C50.55 0.514648 59.4352 3.40577 66.8151 8.36108C69.5613 10.205 69.98 13.8688 68.1439 16.3345C66.1927 18.9548 62.6064 19.2761 60.1693 17.5298C54.7124 13.6197 48.0957 11.3356 40.9589 11.3356C33.8342 11.3356 27.2279 13.612 21.7764 17.5099C19.3493 19.2453 15.7829 18.9216 13.8424 16.3156C12.0137 13.8599 12.4314 10.2123 15.164 8.37527ZM17.1328 11.3039C16.1681 11.9524 15.9784 13.2756 16.6727 14.208C17.3866 15.1668 18.7515 15.3346 19.7239 14.6393C25.7485 10.3316 33.0672 7.80671 40.9589 7.80671C48.864 7.80671 56.1942 10.3402 62.2247 14.6613C63.2085 15.3662 64.5908 15.1975 65.3136 14.2269C66.0156 13.2841 65.8239 11.946 64.848 11.2908C58.0315 6.71384 49.8277 4.04351 41.0001 4.04351C32.1642 4.04351 23.9531 6.71894 17.1328 11.3039Z" fill="#FAFAFA"/>
</svg>
