<svg width="880" height="39" viewBox="0 0 880 39" fill="none" xmlns="http://www.w3.org/2000/svg">
<path d="M0 2C0 0.895431 0.89543 0 2 0H878C879.105 0 880 0.895431 880 2C880 3.10457 879.105 4 878 4H2C0.895429 4 0 3.10457 0 2Z" fill="#E9E9E9"/>
<path d="M0 0H276C277.105 0 278 0.895431 278 2C278 3.10457 277.105 4 276 4H0V0Z" fill="#0D76D6"/>
<g clip-path="url(#clip0_0_1)">
<path fill-rule="evenodd" clip-rule="evenodd" d="M10.8965 28.5168C11.1633 28.7358 11.2022 29.1296 10.9832 29.3965L6.0364 35.4254C5.5863 35.9739 4.74705 35.9739 4.29698 35.4254L2.01684 32.6465C1.79789 32.3796 1.83672 31.9858 2.10357 31.7669C2.37042 31.5479 2.76423 31.5867 2.98319 31.8536L5.1667 34.5147L10.0169 28.6036C10.2358 28.3367 10.6296 28.2979 10.8965 28.5168Z" fill="black"/>
</g>
<path fill-rule="evenodd" clip-rule="evenodd" d="M10.1723 29.4681C10.3725 29.5958 10.4016 29.8256 10.2374 29.9812L6.5273 33.4981C6.18972 33.8181 5.56029 33.8181 5.22273 33.4981L3.51263 31.8771C3.34842 31.7214 3.37754 31.4917 3.57768 31.364C3.77781 31.2362 4.07318 31.2589 4.23739 31.4145L5.87502 32.9669L9.51264 29.5187C9.67685 29.363 9.9722 29.3404 10.1723 29.4681Z" fill="black"/>
<g clip-path="url(#clip1_0_1)">
<path fill-rule="evenodd" clip-rule="evenodd" d="M194.543 28.0736C194.779 27.8212 195.174 27.8076 195.426 28.0431L199.176 31.5431C199.309 31.6669 199.381 31.8424 199.375 32.0238C199.368 32.2052 199.282 32.3747 199.14 32.488L195.39 35.4881C195.121 35.7037 194.728 35.66 194.512 35.3904C194.296 35.1209 194.34 34.7276 194.61 34.5119L197.795 31.9636L194.574 28.9569C194.321 28.7214 194.308 28.3259 194.543 28.0736Z" fill="black"/>
</g>
<path fill-rule="evenodd" clip-rule="evenodd" d="M195.476 29.3824C195.574 29.2141 195.739 29.205 195.844 29.3621L197.407 31.6954C197.462 31.778 197.492 31.8949 197.489 32.0159C197.487 32.1368 197.451 32.2498 197.392 32.3254L195.829 34.3254C195.717 34.4691 195.553 34.44 195.463 34.2603C195.373 34.0806 195.392 33.8184 195.504 33.6746L196.831 31.9757L195.489 29.9713C195.384 29.8143 195.378 29.5506 195.476 29.3824Z" fill="black"/>
<g clip-path="url(#clip2_0_1)">
<path fill-rule="evenodd" clip-rule="evenodd" d="M426.543 28.0736C426.779 27.8212 427.174 27.8076 427.426 28.0431L431.176 31.5431C431.309 31.6669 431.381 31.8424 431.375 32.0238C431.368 32.2052 431.282 32.3747 431.14 32.488L427.39 35.4881C427.121 35.7037 426.728 35.66 426.512 35.3904C426.296 35.1209 426.34 34.7276 426.61 34.5119L429.795 31.9636L426.574 28.9569C426.321 28.7214 426.308 28.3259 426.543 28.0736Z" fill="black"/>
</g>
<path fill-rule="evenodd" clip-rule="evenodd" d="M427.476 29.3824C427.574 29.2141 427.739 29.205 427.844 29.3621L429.407 31.6954C429.462 31.778 429.492 31.8949 429.489 32.0159C429.487 32.1368 429.451 32.2498 429.392 32.3254L427.829 34.3254C427.717 34.4691 427.553 34.44 427.463 34.2603C427.373 34.0806 427.392 33.8184 427.504 33.6746L428.831 31.9757L427.489 29.9713C427.384 29.8143 427.378 29.5506 427.476 29.3824Z" fill="black"/>
<g clip-path="url(#clip3_0_1)">
<path fill-rule="evenodd" clip-rule="evenodd" d="M621.543 28.0736C621.779 27.8212 622.174 27.8076 622.426 28.0431L626.176 31.5431C626.309 31.6669 626.381 31.8424 626.375 32.0238C626.368 32.2052 626.282 32.3747 626.14 32.488L622.39 35.4881C622.121 35.7037 621.728 35.66 621.512 35.3904C621.296 35.1209 621.34 34.7276 621.61 34.5119L624.795 31.9636L621.574 28.9569C621.321 28.7214 621.308 28.3259 621.543 28.0736Z" fill="black"/>
</g>
<path fill-rule="evenodd" clip-rule="evenodd" d="M623.476 29.3824C623.574 29.2141 623.739 29.205 623.844 29.3621L625.407 31.6954C625.462 31.778 625.492 31.8949 625.489 32.0159C625.487 32.1368 625.451 32.2498 625.392 32.3254L623.829 34.3254C623.717 34.4691 623.553 34.44 623.463 34.2603C623.373 34.0806 623.392 33.8184 623.504 33.6746L624.831 31.9757L623.489 29.9713C623.384 29.8143 623.378 29.5506 623.476 29.3824Z" fill="black"/>
<g clip-path="url(#clip4_0_1)">
<path fill-rule="evenodd" clip-rule="evenodd" d="M751.543 28.0736C751.779 27.8212 752.174 27.8076 752.426 28.0431L756.176 31.5431C756.309 31.6669 756.381 31.8424 756.375 32.0238C756.368 32.2052 756.282 32.3747 756.14 32.488L752.39 35.4881C752.121 35.7037 751.728 35.66 751.512 35.3904C751.296 35.1209 751.34 34.7276 751.61 34.5119L754.795 31.9636L751.574 28.9569C751.321 28.7214 751.308 28.3259 751.543 28.0736Z" fill="black"/>
</g>
<path fill-rule="evenodd" clip-rule="evenodd" d="M752.476 29.3824C752.574 29.2141 752.739 29.205 752.844 29.3621L754.407 31.6954C754.462 31.778 754.492 31.8949 754.489 32.0159C754.487 32.1368 754.451 32.2498 754.392 32.3254L752.829 34.3254C752.717 34.4691 752.553 34.44 752.463 34.2603C752.373 34.0806 752.392 33.8184 752.504 33.6746L753.831 31.9757L752.489 29.9713C752.384 29.8143 752.378 29.5506 752.476 29.3824Z" fill="black"/>
<path d="M21.1553 26.0469H24.4502C25.1976 26.0469 25.8288 26.1608 26.3438 26.3887C26.8633 26.6165 27.2575 26.9538 27.5264 27.4004C27.7998 27.8424 27.9365 28.387 27.9365 29.0342C27.9365 29.4899 27.8431 29.9069 27.6562 30.2852C27.474 30.6589 27.2096 30.9779 26.8633 31.2422C26.5215 31.502 26.1113 31.6956 25.6328 31.8232L25.2637 31.9668H22.167L22.1533 30.8936H24.4912C24.9652 30.8936 25.3594 30.8115 25.6738 30.6475C25.9883 30.4788 26.2253 30.2533 26.3848 29.9707C26.5443 29.6882 26.624 29.376 26.624 29.0342C26.624 28.6514 26.5488 28.3164 26.3984 28.0293C26.248 27.7422 26.0111 27.5212 25.6875 27.3662C25.3685 27.2067 24.9561 27.127 24.4502 27.127H22.4746V36H21.1553V26.0469ZM26.9727 36L24.5527 31.4883L25.9268 31.4814L28.3809 35.918V36H26.9727ZM32.6602 36.1367C32.1452 36.1367 31.6781 36.0501 31.2588 35.877C30.8441 35.6992 30.4863 35.4508 30.1855 35.1318C29.8893 34.8128 29.6615 34.4346 29.502 33.9971C29.3424 33.5596 29.2627 33.0811 29.2627 32.5615V32.2744C29.2627 31.6729 29.3516 31.1374 29.5293 30.668C29.707 30.194 29.9486 29.793 30.2539 29.4648C30.5592 29.1367 30.9056 28.8883 31.293 28.7197C31.6803 28.5511 32.0814 28.4668 32.4961 28.4668C33.0247 28.4668 33.4805 28.5579 33.8633 28.7402C34.2507 28.9225 34.5674 29.1777 34.8135 29.5059C35.0596 29.8294 35.2419 30.2122 35.3604 30.6543C35.4788 31.0918 35.5381 31.5703 35.5381 32.0898V32.6572H30.0146V31.625H34.2734V31.5293C34.2552 31.2012 34.1868 30.8822 34.0684 30.5723C33.9544 30.2624 33.7721 30.0072 33.5215 29.8066C33.2708 29.6061 32.929 29.5059 32.4961 29.5059C32.209 29.5059 31.9447 29.5674 31.7031 29.6904C31.4616 29.8089 31.2542 29.9867 31.0811 30.2236C30.9079 30.4606 30.7734 30.75 30.6777 31.0918C30.582 31.4336 30.5342 31.8278 30.5342 32.2744V32.5615C30.5342 32.9124 30.582 33.2428 30.6777 33.5527C30.778 33.8581 30.9215 34.127 31.1084 34.3594C31.2998 34.5918 31.5299 34.7741 31.7988 34.9062C32.0723 35.0384 32.3822 35.1045 32.7285 35.1045C33.1751 35.1045 33.5534 35.0133 33.8633 34.8311C34.1732 34.6488 34.4443 34.4049 34.6768 34.0996L35.4424 34.708C35.2829 34.9495 35.0801 35.1797 34.834 35.3984C34.5879 35.6172 34.2848 35.7949 33.9248 35.9316C33.5693 36.0684 33.1478 36.1367 32.6602 36.1367ZM41.6699 38.8438V30.0254L41.7793 28.6035H42.9414V38.8438H41.6699ZM36.7002 32.3838V32.2402C36.7002 31.6751 36.7663 31.1624 36.8984 30.7021C37.0306 30.2373 37.2243 29.8385 37.4795 29.5059C37.7347 29.1732 38.0423 28.918 38.4023 28.7402C38.7669 28.5579 39.1816 28.4668 39.6465 28.4668C40.1113 28.4668 40.5192 28.5488 40.8701 28.7129C41.2256 28.8724 41.5264 29.1071 41.7725 29.417C42.0231 29.7223 42.2214 30.0915 42.3672 30.5244C42.513 30.9574 42.6133 31.4473 42.668 31.9941V32.623C42.6178 33.1654 42.5199 33.653 42.374 34.0859C42.2282 34.5189 42.0299 34.888 41.7793 35.1934C41.5332 35.4987 41.2301 35.7334 40.8701 35.8975C40.5146 36.057 40.1022 36.1367 39.6328 36.1367C39.1771 36.1367 38.7669 36.0433 38.4023 35.8564C38.0423 35.6696 37.7347 35.4076 37.4795 35.0703C37.2288 34.7331 37.0352 34.3366 36.8984 33.8809C36.7663 33.4206 36.7002 32.9215 36.7002 32.3838ZM37.9717 32.2402V32.3838C37.9717 32.7529 38.0104 33.1016 38.0879 33.4297C38.1654 33.7533 38.2839 34.0404 38.4434 34.291C38.6074 34.5417 38.8125 34.7399 39.0586 34.8857C39.3092 35.027 39.6055 35.0977 39.9473 35.0977C40.3665 35.0977 40.7152 35.0065 40.9932 34.8242C41.2757 34.6419 41.5013 34.4027 41.6699 34.1064C41.8385 33.8057 41.9684 33.4844 42.0596 33.1426V31.4951C42.0094 31.2445 41.9297 31.0007 41.8203 30.7637C41.7155 30.5267 41.5788 30.3148 41.4102 30.1279C41.2415 29.9365 41.0365 29.7861 40.7949 29.6768C40.5579 29.5628 40.2799 29.5059 39.9609 29.5059C39.6146 29.5059 39.3161 29.5788 39.0654 29.7246C38.8148 29.8704 38.6074 30.071 38.4434 30.3262C38.2839 30.5768 38.1654 30.8662 38.0879 31.1943C38.0104 31.5225 37.9717 31.8711 37.9717 32.2402ZM49.4971 34.291V28.6035H50.7686V36H49.5586L49.4971 34.291ZM49.7363 32.7324L50.2627 32.7188C50.2627 33.2109 50.2103 33.6667 50.1055 34.0859C50.0052 34.5007 49.8411 34.8607 49.6133 35.166C49.3854 35.4714 49.0869 35.7106 48.7178 35.8838C48.3486 36.0524 47.8997 36.1367 47.3711 36.1367C47.0111 36.1367 46.6807 36.0843 46.3799 35.9795C46.0837 35.8747 45.8285 35.7129 45.6143 35.4941C45.4001 35.2754 45.2337 34.9906 45.1152 34.6396C45.0013 34.2887 44.9443 33.8672 44.9443 33.375V28.6035H46.209V33.3887C46.209 33.7214 46.2454 33.9971 46.3184 34.2158C46.3958 34.43 46.4984 34.6009 46.626 34.7285C46.7581 34.8516 46.904 34.9382 47.0635 34.9883C47.2275 35.0384 47.3962 35.0635 47.5693 35.0635C48.1071 35.0635 48.5332 34.9609 48.8477 34.7559C49.1621 34.5462 49.3877 34.266 49.5244 33.915C49.6657 33.5596 49.7363 33.1654 49.7363 32.7324ZM55.7656 36.1367C55.2507 36.1367 54.7835 36.0501 54.3643 35.877C53.9495 35.6992 53.5918 35.4508 53.291 35.1318C52.9948 34.8128 52.7669 34.4346 52.6074 33.9971C52.4479 33.5596 52.3682 33.0811 52.3682 32.5615V32.2744C52.3682 31.6729 52.457 31.1374 52.6348 30.668C52.8125 30.194 53.054 29.793 53.3594 29.4648C53.6647 29.1367 54.0111 28.8883 54.3984 28.7197C54.7858 28.5511 55.1868 28.4668 55.6016 28.4668C56.1302 28.4668 56.5859 28.5579 56.9688 28.7402C57.3561 28.9225 57.6729 29.1777 57.9189 29.5059C58.165 29.8294 58.3473 30.2122 58.4658 30.6543C58.5843 31.0918 58.6436 31.5703 58.6436 32.0898V32.6572H53.1201V31.625H57.3789V31.5293C57.3607 31.2012 57.2923 30.8822 57.1738 30.5723C57.0599 30.2624 56.8776 30.0072 56.627 29.8066C56.3763 29.6061 56.0345 29.5059 55.6016 29.5059C55.3145 29.5059 55.0501 29.5674 54.8086 29.6904C54.5671 29.8089 54.3597 29.9867 54.1865 30.2236C54.0133 30.4606 53.8789 30.75 53.7832 31.0918C53.6875 31.4336 53.6396 31.8278 53.6396 32.2744V32.5615C53.6396 32.9124 53.6875 33.2428 53.7832 33.5527C53.8835 33.8581 54.027 34.127 54.2139 34.3594C54.4053 34.5918 54.6354 34.7741 54.9043 34.9062C55.1777 35.0384 55.4876 35.1045 55.834 35.1045C56.2806 35.1045 56.6589 35.0133 56.9688 34.8311C57.2786 34.6488 57.5498 34.4049 57.7822 34.0996L58.5479 34.708C58.3883 34.9495 58.1855 35.1797 57.9395 35.3984C57.6934 35.6172 57.3903 35.7949 57.0303 35.9316C56.6748 36.0684 56.2533 36.1367 55.7656 36.1367ZM64.4268 34.0381C64.4268 33.8558 64.3857 33.6872 64.3037 33.5322C64.2262 33.3727 64.0645 33.2292 63.8184 33.1016C63.5768 32.9694 63.2122 32.8555 62.7246 32.7598C62.3145 32.6732 61.943 32.5706 61.6104 32.4521C61.2822 32.3337 61.002 32.1901 60.7695 32.0215C60.5417 31.8529 60.3662 31.6546 60.2432 31.4268C60.1201 31.1989 60.0586 30.9323 60.0586 30.627C60.0586 30.3353 60.1224 30.0596 60.25 29.7998C60.3822 29.54 60.5667 29.3099 60.8037 29.1094C61.0452 28.9089 61.3346 28.7516 61.6719 28.6377C62.0091 28.5238 62.3851 28.4668 62.7998 28.4668C63.3923 28.4668 63.8981 28.5716 64.3174 28.7812C64.7367 28.9909 65.0579 29.2712 65.2812 29.6221C65.5046 29.9684 65.6162 30.3535 65.6162 30.7773H64.3516C64.3516 30.5723 64.29 30.374 64.167 30.1826C64.0485 29.9867 63.873 29.8249 63.6406 29.6973C63.4128 29.5697 63.1325 29.5059 62.7998 29.5059C62.4489 29.5059 62.1641 29.5605 61.9453 29.6699C61.7311 29.7747 61.5739 29.9092 61.4736 30.0732C61.3779 30.2373 61.3301 30.4105 61.3301 30.5928C61.3301 30.7295 61.3529 30.8525 61.3984 30.9619C61.4486 31.0667 61.5352 31.1647 61.6582 31.2559C61.7812 31.3424 61.9544 31.4245 62.1777 31.502C62.401 31.5794 62.6859 31.6569 63.0322 31.7344C63.6383 31.8711 64.1374 32.0352 64.5293 32.2266C64.9212 32.418 65.2129 32.6527 65.4043 32.9307C65.5957 33.2087 65.6914 33.5459 65.6914 33.9424C65.6914 34.266 65.623 34.5622 65.4863 34.8311C65.3542 35.0999 65.1605 35.3324 64.9053 35.5283C64.6546 35.7197 64.3538 35.8701 64.0029 35.9795C63.6566 36.0843 63.2669 36.1367 62.834 36.1367C62.1823 36.1367 61.6309 36.0205 61.1797 35.7881C60.7285 35.5557 60.3867 35.2549 60.1543 34.8857C59.9219 34.5166 59.8057 34.127 59.8057 33.7168H61.0771C61.0954 34.0632 61.1956 34.3389 61.3779 34.5439C61.5602 34.7445 61.7835 34.888 62.0479 34.9746C62.3122 35.0566 62.5742 35.0977 62.834 35.0977C63.1803 35.0977 63.4697 35.0521 63.7021 34.9609C63.9391 34.8698 64.1191 34.7445 64.2422 34.585C64.3652 34.4255 64.4268 34.2432 64.4268 34.0381ZM70.4492 28.6035V29.5742H66.4502V28.6035H70.4492ZM67.8037 26.8057H69.0684V34.168C69.0684 34.4186 69.1071 34.6077 69.1846 34.7354C69.262 34.863 69.3623 34.9473 69.4854 34.9883C69.6084 35.0293 69.7406 35.0498 69.8818 35.0498C69.9867 35.0498 70.096 35.0407 70.21 35.0225C70.3285 34.9997 70.4173 34.9814 70.4766 34.9678L70.4834 36C70.3831 36.0319 70.251 36.0615 70.0869 36.0889C69.9274 36.1208 69.7337 36.1367 69.5059 36.1367C69.196 36.1367 68.9111 36.0752 68.6514 35.9521C68.3916 35.8291 68.1842 35.624 68.0293 35.3369C67.8789 35.0452 67.8037 34.6533 67.8037 34.1611V26.8057ZM75.0703 32.3838V32.2266C75.0703 31.6934 75.1478 31.1989 75.3027 30.7432C75.4577 30.2829 75.681 29.8841 75.9727 29.5469C76.2643 29.2051 76.6175 28.9408 77.0322 28.7539C77.4469 28.5625 77.9118 28.4668 78.4268 28.4668C78.9463 28.4668 79.4134 28.5625 79.8281 28.7539C80.2474 28.9408 80.6029 29.2051 80.8945 29.5469C81.1908 29.8841 81.4163 30.2829 81.5713 30.7432C81.7262 31.1989 81.8037 31.6934 81.8037 32.2266V32.3838C81.8037 32.917 81.7262 33.4115 81.5713 33.8672C81.4163 34.3229 81.1908 34.7217 80.8945 35.0635C80.6029 35.4007 80.2497 35.665 79.835 35.8564C79.4248 36.0433 78.96 36.1367 78.4404 36.1367C77.9209 36.1367 77.4538 36.0433 77.0391 35.8564C76.6243 35.665 76.2689 35.4007 75.9727 35.0635C75.681 34.7217 75.4577 34.3229 75.3027 33.8672C75.1478 33.4115 75.0703 32.917 75.0703 32.3838ZM76.335 32.2266V32.3838C76.335 32.7529 76.3783 33.1016 76.4648 33.4297C76.5514 33.7533 76.6813 34.0404 76.8545 34.291C77.0322 34.5417 77.2533 34.7399 77.5176 34.8857C77.7819 35.027 78.0895 35.0977 78.4404 35.0977C78.7868 35.0977 79.0898 35.027 79.3496 34.8857C79.6139 34.7399 79.8327 34.5417 80.0059 34.291C80.179 34.0404 80.3089 33.7533 80.3955 33.4297C80.4867 33.1016 80.5322 32.7529 80.5322 32.3838V32.2266C80.5322 31.862 80.4867 31.5179 80.3955 31.1943C80.3089 30.8662 80.1768 30.5768 79.999 30.3262C79.8258 30.071 79.6071 29.8704 79.3428 29.7246C79.083 29.5788 78.7777 29.5059 78.4268 29.5059C78.0804 29.5059 77.7751 29.5788 77.5107 29.7246C77.251 29.8704 77.0322 30.071 76.8545 30.3262C76.6813 30.5768 76.5514 30.8662 76.4648 31.1943C76.3783 31.5179 76.335 31.862 76.335 32.2266ZM85.2764 36H84.0117V27.8242C84.0117 27.291 84.1074 26.8421 84.2988 26.4775C84.4948 26.1084 84.7751 25.8304 85.1396 25.6436C85.5042 25.4521 85.9372 25.3564 86.4385 25.3564C86.5843 25.3564 86.7301 25.3656 86.876 25.3838C87.0264 25.402 87.1722 25.4294 87.3135 25.4658L87.2451 26.498C87.1494 26.4753 87.04 26.4593 86.917 26.4502C86.7985 26.4411 86.68 26.4365 86.5615 26.4365C86.2926 26.4365 86.0602 26.4912 85.8643 26.6006C85.6729 26.7054 85.527 26.8604 85.4268 27.0654C85.3265 27.2705 85.2764 27.5234 85.2764 27.8242V36ZM86.8486 28.6035V29.5742H82.8428V28.6035H86.8486ZM90.1436 36H88.8789V27.8242C88.8789 27.291 88.9746 26.8421 89.166 26.4775C89.362 26.1084 89.6423 25.8304 90.0068 25.6436C90.3714 25.4521 90.8044 25.3564 91.3057 25.3564C91.4515 25.3564 91.5973 25.3656 91.7432 25.3838C91.8936 25.402 92.0394 25.4294 92.1807 25.4658L92.1123 26.498C92.0166 26.4753 91.9072 26.4593 91.7842 26.4502C91.6657 26.4411 91.5472 26.4365 91.4287 26.4365C91.1598 26.4365 90.9274 26.4912 90.7314 26.6006C90.54 26.7054 90.3942 26.8604 90.2939 27.0654C90.1937 27.2705 90.1436 27.5234 90.1436 27.8242V36ZM91.7158 28.6035V29.5742H87.71V28.6035H91.7158ZM96.0293 36.1367C95.5143 36.1367 95.0472 36.0501 94.6279 35.877C94.2132 35.6992 93.8555 35.4508 93.5547 35.1318C93.2585 34.8128 93.0306 34.4346 92.8711 33.9971C92.7116 33.5596 92.6318 33.0811 92.6318 32.5615V32.2744C92.6318 31.6729 92.7207 31.1374 92.8984 30.668C93.0762 30.194 93.3177 29.793 93.623 29.4648C93.9284 29.1367 94.2747 28.8883 94.6621 28.7197C95.0495 28.5511 95.4505 28.4668 95.8652 28.4668C96.3939 28.4668 96.8496 28.5579 97.2324 28.7402C97.6198 28.9225 97.9365 29.1777 98.1826 29.5059C98.4287 29.8294 98.611 30.2122 98.7295 30.6543C98.848 31.0918 98.9072 31.5703 98.9072 32.0898V32.6572H93.3838V31.625H97.6426V31.5293C97.6243 31.2012 97.556 30.8822 97.4375 30.5723C97.3236 30.2624 97.1413 30.0072 96.8906 29.8066C96.64 29.6061 96.2982 29.5059 95.8652 29.5059C95.5781 29.5059 95.3138 29.5674 95.0723 29.6904C94.8307 29.8089 94.6234 29.9867 94.4502 30.2236C94.277 30.4606 94.1426 30.75 94.0469 31.0918C93.9512 31.4336 93.9033 31.8278 93.9033 32.2744V32.5615C93.9033 32.9124 93.9512 33.2428 94.0469 33.5527C94.1471 33.8581 94.2907 34.127 94.4775 34.3594C94.6689 34.5918 94.8991 34.7741 95.168 34.9062C95.4414 35.0384 95.7513 35.1045 96.0977 35.1045C96.5443 35.1045 96.9225 35.0133 97.2324 34.8311C97.5423 34.6488 97.8135 34.4049 98.0459 34.0996L98.8115 34.708C98.652 34.9495 98.4492 35.1797 98.2031 35.3984C97.957 35.6172 97.654 35.7949 97.2939 35.9316C96.9385 36.0684 96.5169 36.1367 96.0293 36.1367ZM101.648 29.7656V36H100.384V28.6035H101.614L101.648 29.7656ZM103.959 28.5625L103.952 29.7383C103.847 29.7155 103.747 29.7018 103.651 29.6973C103.56 29.6882 103.455 29.6836 103.337 29.6836C103.045 29.6836 102.788 29.7292 102.564 29.8203C102.341 29.9115 102.152 30.0391 101.997 30.2031C101.842 30.3672 101.719 30.5632 101.628 30.791C101.541 31.0143 101.484 31.2604 101.457 31.5293L101.102 31.7344C101.102 31.2878 101.145 30.8685 101.231 30.4766C101.323 30.0846 101.462 29.7383 101.648 29.4375C101.835 29.1322 102.072 28.8952 102.359 28.7266C102.651 28.5534 102.997 28.4668 103.398 28.4668C103.49 28.4668 103.594 28.4782 103.713 28.501C103.831 28.5192 103.913 28.5397 103.959 28.5625Z" fill="#6E6E6E"/>
<path d="M217.46 33.4844C217.46 33.252 217.424 33.0469 217.351 32.8691C217.282 32.6868 217.159 32.5228 216.981 32.377C216.808 32.2311 216.567 32.0921 216.257 31.96C215.951 31.8278 215.564 31.6934 215.095 31.5566C214.603 31.4108 214.158 31.249 213.762 31.0713C213.365 30.889 213.026 30.6816 212.743 30.4492C212.461 30.2168 212.244 29.9502 212.094 29.6494C211.943 29.3486 211.868 29.0046 211.868 28.6172C211.868 28.2298 211.948 27.8721 212.107 27.5439C212.267 27.2158 212.495 26.931 212.791 26.6895C213.092 26.4434 213.45 26.252 213.864 26.1152C214.279 25.9785 214.742 25.9102 215.252 25.9102C215.999 25.9102 216.633 26.0537 217.152 26.3408C217.676 26.6234 218.075 26.9948 218.349 27.4551C218.622 27.9108 218.759 28.3984 218.759 28.918H217.446C217.446 28.5443 217.367 28.2139 217.207 27.9268C217.048 27.6351 216.806 27.4072 216.482 27.2432C216.159 27.0745 215.749 26.9902 215.252 26.9902C214.783 26.9902 214.395 27.0609 214.09 27.2021C213.785 27.3434 213.557 27.5348 213.406 27.7764C213.26 28.0179 213.188 28.2936 213.188 28.6035C213.188 28.8132 213.231 29.0046 213.317 29.1777C213.409 29.3464 213.548 29.5036 213.734 29.6494C213.926 29.7952 214.167 29.9297 214.459 30.0527C214.755 30.1758 215.108 30.2943 215.519 30.4082C216.084 30.5677 216.571 30.7454 216.981 30.9414C217.392 31.1374 217.729 31.3584 217.993 31.6045C218.262 31.846 218.46 32.1217 218.588 32.4316C218.72 32.737 218.786 33.0833 218.786 33.4707C218.786 33.8763 218.704 34.2432 218.54 34.5713C218.376 34.8994 218.141 35.1797 217.836 35.4121C217.531 35.6445 217.164 35.8245 216.735 35.9521C216.312 36.0752 215.838 36.1367 215.313 36.1367C214.853 36.1367 214.4 36.0729 213.953 35.9453C213.511 35.8177 213.108 35.6263 212.743 35.3711C212.383 35.1159 212.094 34.8014 211.875 34.4277C211.661 34.0495 211.554 33.612 211.554 33.1152H212.866C212.866 33.457 212.932 33.751 213.064 33.9971C213.197 34.2386 213.377 34.4391 213.604 34.5986C213.837 34.7581 214.099 34.8766 214.391 34.9541C214.687 35.027 214.994 35.0635 215.313 35.0635C215.774 35.0635 216.163 34.9997 216.482 34.8721C216.801 34.7445 217.043 34.5622 217.207 34.3252C217.376 34.0882 217.46 33.8079 217.46 33.4844ZM221.541 25.5V36H220.276V25.5H221.541ZM221.24 32.0215L220.714 32.001C220.718 31.4951 220.794 31.028 220.939 30.5996C221.085 30.1667 221.29 29.7907 221.555 29.4717C221.819 29.1527 222.133 28.9066 222.498 28.7334C222.867 28.5557 223.275 28.4668 223.722 28.4668C224.086 28.4668 224.414 28.5169 224.706 28.6172C224.998 28.7129 225.246 28.8678 225.451 29.082C225.661 29.2962 225.82 29.5742 225.93 29.916C226.039 30.2533 226.094 30.6657 226.094 31.1533V36H224.822V31.1396C224.822 30.7523 224.765 30.4424 224.651 30.21C224.537 29.973 224.371 29.8021 224.152 29.6973C223.934 29.5879 223.665 29.5332 223.346 29.5332C223.031 29.5332 222.744 29.5993 222.484 29.7314C222.229 29.8636 222.008 30.0459 221.821 30.2783C221.639 30.5107 221.495 30.7773 221.391 31.0781C221.29 31.3743 221.24 31.6888 221.24 32.0215ZM227.652 32.3838V32.2266C227.652 31.6934 227.73 31.1989 227.885 30.7432C228.04 30.2829 228.263 29.8841 228.555 29.5469C228.846 29.2051 229.2 28.9408 229.614 28.7539C230.029 28.5625 230.494 28.4668 231.009 28.4668C231.528 28.4668 231.995 28.5625 232.41 28.7539C232.829 28.9408 233.185 29.2051 233.477 29.5469C233.773 29.8841 233.998 30.2829 234.153 30.7432C234.308 31.1989 234.386 31.6934 234.386 32.2266V32.3838C234.386 32.917 234.308 33.4115 234.153 33.8672C233.998 34.3229 233.773 34.7217 233.477 35.0635C233.185 35.4007 232.832 35.665 232.417 35.8564C232.007 36.0433 231.542 36.1367 231.022 36.1367C230.503 36.1367 230.036 36.0433 229.621 35.8564C229.206 35.665 228.851 35.4007 228.555 35.0635C228.263 34.7217 228.04 34.3229 227.885 33.8672C227.73 33.4115 227.652 32.917 227.652 32.3838ZM228.917 32.2266V32.3838C228.917 32.7529 228.96 33.1016 229.047 33.4297C229.133 33.7533 229.263 34.0404 229.437 34.291C229.614 34.5417 229.835 34.7399 230.1 34.8857C230.364 35.027 230.672 35.0977 231.022 35.0977C231.369 35.0977 231.672 35.027 231.932 34.8857C232.196 34.7399 232.415 34.5417 232.588 34.291C232.761 34.0404 232.891 33.7533 232.978 33.4297C233.069 33.1016 233.114 32.7529 233.114 32.3838V32.2266C233.114 31.862 233.069 31.5179 232.978 31.1943C232.891 30.8662 232.759 30.5768 232.581 30.3262C232.408 30.071 232.189 29.8704 231.925 29.7246C231.665 29.5788 231.36 29.5059 231.009 29.5059C230.662 29.5059 230.357 29.5788 230.093 29.7246C229.833 29.8704 229.614 30.071 229.437 30.3262C229.263 30.5768 229.133 30.8662 229.047 31.1943C228.96 31.5179 228.917 31.862 228.917 32.2266ZM237.845 34.6875L239.745 28.6035H240.579L240.415 29.8135L238.48 36H237.667L237.845 34.6875ZM236.566 28.6035L238.187 34.7559L238.303 36H237.448L235.302 28.6035H236.566ZM242.397 34.708L243.942 28.6035H245.2L243.054 36H242.206L242.397 34.708ZM240.764 28.6035L242.623 34.585L242.835 36H242.028L240.039 29.7998L239.875 28.6035H240.764ZM254.497 34.291V28.6035H255.769V36H254.559L254.497 34.291ZM254.736 32.7324L255.263 32.7188C255.263 33.2109 255.21 33.6667 255.105 34.0859C255.005 34.5007 254.841 34.8607 254.613 35.166C254.385 35.4714 254.087 35.7106 253.718 35.8838C253.349 36.0524 252.9 36.1367 252.371 36.1367C252.011 36.1367 251.681 36.0843 251.38 35.9795C251.084 35.8747 250.828 35.7129 250.614 35.4941C250.4 35.2754 250.234 34.9906 250.115 34.6396C250.001 34.2887 249.944 33.8672 249.944 33.375V28.6035H251.209V33.3887C251.209 33.7214 251.245 33.9971 251.318 34.2158C251.396 34.43 251.498 34.6009 251.626 34.7285C251.758 34.8516 251.904 34.9382 252.063 34.9883C252.228 35.0384 252.396 35.0635 252.569 35.0635C253.107 35.0635 253.533 34.9609 253.848 34.7559C254.162 34.5462 254.388 34.266 254.524 33.915C254.666 33.5596 254.736 33.1654 254.736 32.7324ZM262.003 34.0381C262.003 33.8558 261.962 33.6872 261.88 33.5322C261.802 33.3727 261.641 33.2292 261.395 33.1016C261.153 32.9694 260.788 32.8555 260.301 32.7598C259.891 32.6732 259.519 32.5706 259.187 32.4521C258.858 32.3337 258.578 32.1901 258.346 32.0215C258.118 31.8529 257.942 31.6546 257.819 31.4268C257.696 31.1989 257.635 30.9323 257.635 30.627C257.635 30.3353 257.699 30.0596 257.826 29.7998C257.958 29.54 258.143 29.3099 258.38 29.1094C258.621 28.9089 258.911 28.7516 259.248 28.6377C259.585 28.5238 259.961 28.4668 260.376 28.4668C260.968 28.4668 261.474 28.5716 261.894 28.7812C262.313 28.9909 262.634 29.2712 262.857 29.6221C263.081 29.9684 263.192 30.3535 263.192 30.7773H261.928C261.928 30.5723 261.866 30.374 261.743 30.1826C261.625 29.9867 261.449 29.8249 261.217 29.6973C260.989 29.5697 260.709 29.5059 260.376 29.5059C260.025 29.5059 259.74 29.5605 259.521 29.6699C259.307 29.7747 259.15 29.9092 259.05 30.0732C258.954 30.2373 258.906 30.4105 258.906 30.5928C258.906 30.7295 258.929 30.8525 258.975 30.9619C259.025 31.0667 259.111 31.1647 259.234 31.2559C259.357 31.3424 259.531 31.4245 259.754 31.502C259.977 31.5794 260.262 31.6569 260.608 31.7344C261.215 31.8711 261.714 32.0352 262.105 32.2266C262.497 32.418 262.789 32.6527 262.98 32.9307C263.172 33.2087 263.268 33.5459 263.268 33.9424C263.268 34.266 263.199 34.5622 263.062 34.8311C262.93 35.0999 262.737 35.3324 262.481 35.5283C262.231 35.7197 261.93 35.8701 261.579 35.9795C261.233 36.0843 260.843 36.1367 260.41 36.1367C259.758 36.1367 259.207 36.0205 258.756 35.7881C258.305 35.5557 257.963 35.2549 257.73 34.8857C257.498 34.5166 257.382 34.127 257.382 33.7168H258.653C258.672 34.0632 258.772 34.3389 258.954 34.5439C259.136 34.7445 259.36 34.888 259.624 34.9746C259.888 35.0566 260.15 35.0977 260.41 35.0977C260.757 35.0977 261.046 35.0521 261.278 34.9609C261.515 34.8698 261.695 34.7445 261.818 34.585C261.941 34.4255 262.003 34.2432 262.003 34.0381ZM270.479 35.2344L272.537 28.6035H273.891L270.924 37.1416C270.855 37.3239 270.764 37.5199 270.65 37.7295C270.541 37.9437 270.4 38.1465 270.227 38.3379C270.053 38.5293 269.844 38.6842 269.598 38.8027C269.356 38.9258 269.067 38.9873 268.729 38.9873C268.629 38.9873 268.502 38.9736 268.347 38.9463C268.192 38.9189 268.082 38.8962 268.019 38.8779L268.012 37.8525C268.048 37.8571 268.105 37.8617 268.183 37.8662C268.265 37.8753 268.322 37.8799 268.354 37.8799C268.641 37.8799 268.884 37.8411 269.085 37.7637C269.285 37.6908 269.454 37.5654 269.591 37.3877C269.732 37.2145 269.853 36.9753 269.953 36.6699L270.479 35.2344ZM268.969 28.6035L270.89 34.3457L271.218 35.6787L270.309 36.1436L267.588 28.6035H268.969ZM274.588 32.3838V32.2266C274.588 31.6934 274.665 31.1989 274.82 30.7432C274.975 30.2829 275.199 29.8841 275.49 29.5469C275.782 29.2051 276.135 28.9408 276.55 28.7539C276.965 28.5625 277.429 28.4668 277.944 28.4668C278.464 28.4668 278.931 28.5625 279.346 28.7539C279.765 28.9408 280.12 29.2051 280.412 29.5469C280.708 29.8841 280.934 30.2829 281.089 30.7432C281.244 31.1989 281.321 31.6934 281.321 32.2266V32.3838C281.321 32.917 281.244 33.4115 281.089 33.8672C280.934 34.3229 280.708 34.7217 280.412 35.0635C280.12 35.4007 279.767 35.665 279.353 35.8564C278.942 36.0433 278.478 36.1367 277.958 36.1367C277.438 36.1367 276.971 36.0433 276.557 35.8564C276.142 35.665 275.786 35.4007 275.49 35.0635C275.199 34.7217 274.975 34.3229 274.82 33.8672C274.665 33.4115 274.588 32.917 274.588 32.3838ZM275.853 32.2266V32.3838C275.853 32.7529 275.896 33.1016 275.982 33.4297C276.069 33.7533 276.199 34.0404 276.372 34.291C276.55 34.5417 276.771 34.7399 277.035 34.8857C277.299 35.027 277.607 35.0977 277.958 35.0977C278.304 35.0977 278.607 35.027 278.867 34.8857C279.132 34.7399 279.35 34.5417 279.523 34.291C279.697 34.0404 279.826 33.7533 279.913 33.4297C280.004 33.1016 280.05 32.7529 280.05 32.3838V32.2266C280.05 31.862 280.004 31.5179 279.913 31.1943C279.826 30.8662 279.694 30.5768 279.517 30.3262C279.343 30.071 279.125 29.8704 278.86 29.7246C278.601 29.5788 278.295 29.5059 277.944 29.5059C277.598 29.5059 277.293 29.5788 277.028 29.7246C276.769 29.8704 276.55 30.071 276.372 30.3262C276.199 30.5768 276.069 30.8662 275.982 31.1943C275.896 31.5179 275.853 31.862 275.853 32.2266ZM287.433 34.291V28.6035H288.704V36H287.494L287.433 34.291ZM287.672 32.7324L288.198 32.7188C288.198 33.2109 288.146 33.6667 288.041 34.0859C287.941 34.5007 287.777 34.8607 287.549 35.166C287.321 35.4714 287.022 35.7106 286.653 35.8838C286.284 36.0524 285.835 36.1367 285.307 36.1367C284.947 36.1367 284.616 36.0843 284.315 35.9795C284.019 35.8747 283.764 35.7129 283.55 35.4941C283.336 35.2754 283.169 34.9906 283.051 34.6396C282.937 34.2887 282.88 33.8672 282.88 33.375V28.6035H284.145V33.3887C284.145 33.7214 284.181 33.9971 284.254 34.2158C284.331 34.43 284.434 34.6009 284.562 34.7285C284.694 34.8516 284.84 34.9382 284.999 34.9883C285.163 35.0384 285.332 35.0635 285.505 35.0635C286.043 35.0635 286.469 34.9609 286.783 34.7559C287.098 34.5462 287.323 34.266 287.46 33.915C287.601 33.5596 287.672 33.1654 287.672 32.7324ZM291.896 29.7656V36H290.632V28.6035H291.862L291.896 29.7656ZM294.207 28.5625L294.2 29.7383C294.095 29.7155 293.995 29.7018 293.899 29.6973C293.808 29.6882 293.703 29.6836 293.585 29.6836C293.293 29.6836 293.036 29.7292 292.812 29.8203C292.589 29.9115 292.4 30.0391 292.245 30.2031C292.09 30.3672 291.967 30.5632 291.876 30.791C291.789 31.0143 291.732 31.2604 291.705 31.5293L291.35 31.7344C291.35 31.2878 291.393 30.8685 291.479 30.4766C291.571 30.0846 291.71 29.7383 291.896 29.4375C292.083 29.1322 292.32 28.8952 292.607 28.7266C292.899 28.5534 293.245 28.4668 293.646 28.4668C293.738 28.4668 293.842 28.4782 293.961 28.501C294.079 28.5192 294.161 28.5397 294.207 28.5625ZM300.113 25.5V36H298.849V25.5H300.113ZM299.812 32.0215L299.286 32.001C299.291 31.4951 299.366 31.028 299.512 30.5996C299.658 30.1667 299.863 29.7907 300.127 29.4717C300.391 29.1527 300.706 28.9066 301.07 28.7334C301.439 28.5557 301.847 28.4668 302.294 28.4668C302.659 28.4668 302.987 28.5169 303.278 28.6172C303.57 28.7129 303.818 28.8678 304.023 29.082C304.233 29.2962 304.393 29.5742 304.502 29.916C304.611 30.2533 304.666 30.6657 304.666 31.1533V36H303.395V31.1396C303.395 30.7523 303.338 30.4424 303.224 30.21C303.11 29.973 302.943 29.8021 302.725 29.6973C302.506 29.5879 302.237 29.5332 301.918 29.5332C301.604 29.5332 301.316 29.5993 301.057 29.7314C300.801 29.8636 300.58 30.0459 300.394 30.2783C300.211 30.5107 300.068 30.7773 299.963 31.0781C299.863 31.3743 299.812 31.6888 299.812 32.0215ZM306.225 32.3838V32.2266C306.225 31.6934 306.302 31.1989 306.457 30.7432C306.612 30.2829 306.835 29.8841 307.127 29.5469C307.419 29.2051 307.772 28.9408 308.187 28.7539C308.601 28.5625 309.066 28.4668 309.581 28.4668C310.101 28.4668 310.568 28.5625 310.982 28.7539C311.402 28.9408 311.757 29.2051 312.049 29.5469C312.345 29.8841 312.571 30.2829 312.726 30.7432C312.881 31.1989 312.958 31.6934 312.958 32.2266V32.3838C312.958 32.917 312.881 33.4115 312.726 33.8672C312.571 34.3229 312.345 34.7217 312.049 35.0635C311.757 35.4007 311.404 35.665 310.989 35.8564C310.579 36.0433 310.114 36.1367 309.595 36.1367C309.075 36.1367 308.608 36.0433 308.193 35.8564C307.779 35.665 307.423 35.4007 307.127 35.0635C306.835 34.7217 306.612 34.3229 306.457 33.8672C306.302 33.4115 306.225 32.917 306.225 32.3838ZM307.489 32.2266V32.3838C307.489 32.7529 307.533 33.1016 307.619 33.4297C307.706 33.7533 307.836 34.0404 308.009 34.291C308.187 34.5417 308.408 34.7399 308.672 34.8857C308.936 35.027 309.244 35.0977 309.595 35.0977C309.941 35.0977 310.244 35.027 310.504 34.8857C310.768 34.7399 310.987 34.5417 311.16 34.291C311.333 34.0404 311.463 33.7533 311.55 33.4297C311.641 33.1016 311.687 32.7529 311.687 32.3838V32.2266C311.687 31.862 311.641 31.5179 311.55 31.1943C311.463 30.8662 311.331 30.5768 311.153 30.3262C310.98 30.071 310.761 29.8704 310.497 29.7246C310.237 29.5788 309.932 29.5059 309.581 29.5059C309.235 29.5059 308.929 29.5788 308.665 29.7246C308.405 29.8704 308.187 30.071 308.009 30.3262C307.836 30.5768 307.706 30.8662 307.619 31.1943C307.533 31.5179 307.489 31.862 307.489 32.2266ZM315.802 30.0732V36H314.53V28.6035H315.733L315.802 30.0732ZM315.542 32.0215L314.954 32.001C314.959 31.4951 315.025 31.028 315.152 30.5996C315.28 30.1667 315.469 29.7907 315.72 29.4717C315.97 29.1527 316.283 28.9066 316.656 28.7334C317.03 28.5557 317.463 28.4668 317.955 28.4668C318.301 28.4668 318.62 28.5169 318.912 28.6172C319.204 28.7129 319.457 28.8656 319.671 29.0752C319.885 29.2848 320.051 29.5537 320.17 29.8818C320.288 30.21 320.348 30.6064 320.348 31.0713V36H319.083V31.1328C319.083 30.7454 319.017 30.4355 318.885 30.2031C318.757 29.9707 318.575 29.8021 318.338 29.6973C318.101 29.5879 317.823 29.5332 317.504 29.5332C317.13 29.5332 316.818 29.5993 316.567 29.7314C316.317 29.8636 316.116 30.0459 315.966 30.2783C315.815 30.5107 315.706 30.7773 315.638 31.0781C315.574 31.3743 315.542 31.6888 315.542 32.0215ZM320.334 31.3242L319.486 31.584C319.491 31.1784 319.557 30.7887 319.685 30.415C319.817 30.0413 320.006 29.7087 320.252 29.417C320.503 29.1253 320.81 28.8952 321.175 28.7266C321.539 28.5534 321.956 28.4668 322.426 28.4668C322.822 28.4668 323.173 28.5192 323.479 28.624C323.788 28.7288 324.048 28.8906 324.258 29.1094C324.472 29.3236 324.634 29.5993 324.743 29.9365C324.853 30.2738 324.907 30.6748 324.907 31.1396V36H323.636V31.126C323.636 30.7113 323.57 30.39 323.438 30.1621C323.31 29.9297 323.128 29.7679 322.891 29.6768C322.658 29.5811 322.38 29.5332 322.057 29.5332C321.779 29.5332 321.533 29.5811 321.318 29.6768C321.104 29.7725 320.924 29.9046 320.778 30.0732C320.632 30.2373 320.521 30.4264 320.443 30.6406C320.37 30.8548 320.334 31.0827 320.334 31.3242ZM329.891 36.1367C329.376 36.1367 328.909 36.0501 328.489 35.877C328.075 35.6992 327.717 35.4508 327.416 35.1318C327.12 34.8128 326.892 34.4346 326.732 33.9971C326.573 33.5596 326.493 33.0811 326.493 32.5615V32.2744C326.493 31.6729 326.582 31.1374 326.76 30.668C326.938 30.194 327.179 29.793 327.484 29.4648C327.79 29.1367 328.136 28.8883 328.523 28.7197C328.911 28.5511 329.312 28.4668 329.727 28.4668C330.255 28.4668 330.711 28.5579 331.094 28.7402C331.481 28.9225 331.798 29.1777 332.044 29.5059C332.29 29.8294 332.472 30.2122 332.591 30.6543C332.709 31.0918 332.769 31.5703 332.769 32.0898V32.6572H327.245V31.625H331.504V31.5293C331.486 31.2012 331.417 30.8822 331.299 30.5723C331.185 30.2624 331.003 30.0072 330.752 29.8066C330.501 29.6061 330.16 29.5059 329.727 29.5059C329.439 29.5059 329.175 29.5674 328.934 29.6904C328.692 29.8089 328.485 29.9867 328.312 30.2236C328.138 30.4606 328.004 30.75 327.908 31.0918C327.812 31.4336 327.765 31.8278 327.765 32.2744V32.5615C327.765 32.9124 327.812 33.2428 327.908 33.5527C328.008 33.8581 328.152 34.127 328.339 34.3594C328.53 34.5918 328.76 34.7741 329.029 34.9062C329.303 35.0384 329.613 35.1045 329.959 35.1045C330.406 35.1045 330.784 35.0133 331.094 34.8311C331.404 34.6488 331.675 34.4049 331.907 34.0996L332.673 34.708C332.513 34.9495 332.311 35.1797 332.064 35.3984C331.818 35.6172 331.515 35.7949 331.155 35.9316C330.8 36.0684 330.378 36.1367 329.891 36.1367Z" fill="#222222"/>
<path d="M445.475 26.0469V36H444.155V26.0469H445.475ZM449.645 30.5244V31.6045H445.188V30.5244H449.645ZM450.321 26.0469V27.127H445.188V26.0469H450.321ZM453.076 28.6035V36H451.805V28.6035H453.076ZM451.709 26.6416C451.709 26.4365 451.771 26.2633 451.894 26.1221C452.021 25.9808 452.208 25.9102 452.454 25.9102C452.696 25.9102 452.88 25.9808 453.008 26.1221C453.14 26.2633 453.206 26.4365 453.206 26.6416C453.206 26.8376 453.14 27.0062 453.008 27.1475C452.88 27.2842 452.696 27.3525 452.454 27.3525C452.208 27.3525 452.021 27.2842 451.894 27.1475C451.771 27.0062 451.709 26.8376 451.709 26.6416ZM456.371 30.1826V36H455.106V28.6035H456.303L456.371 30.1826ZM456.07 32.0215L455.544 32.001C455.549 31.4951 455.624 31.028 455.77 30.5996C455.915 30.1667 456.12 29.7907 456.385 29.4717C456.649 29.1527 456.964 28.9066 457.328 28.7334C457.697 28.5557 458.105 28.4668 458.552 28.4668C458.916 28.4668 459.244 28.5169 459.536 28.6172C459.828 28.7129 460.076 28.8678 460.281 29.082C460.491 29.2962 460.65 29.5742 460.76 29.916C460.869 30.2533 460.924 30.6657 460.924 31.1533V36H459.652V31.1396C459.652 30.7523 459.595 30.4424 459.481 30.21C459.368 29.973 459.201 29.8021 458.982 29.6973C458.764 29.5879 458.495 29.5332 458.176 29.5332C457.861 29.5332 457.574 29.5993 457.314 29.7314C457.059 29.8636 456.838 30.0459 456.651 30.2783C456.469 30.5107 456.326 30.7773 456.221 31.0781C456.12 31.3743 456.07 31.6888 456.07 32.0215ZM467.206 34.7354V30.9277C467.206 30.6361 467.147 30.3831 467.028 30.1689C466.914 29.9502 466.741 29.7816 466.509 29.6631C466.276 29.5446 465.989 29.4854 465.647 29.4854C465.328 29.4854 465.048 29.54 464.807 29.6494C464.57 29.7588 464.383 29.9023 464.246 30.0801C464.114 30.2578 464.048 30.4492 464.048 30.6543H462.783C462.783 30.39 462.852 30.1279 462.988 29.8682C463.125 29.6084 463.321 29.3737 463.576 29.1641C463.836 28.9499 464.146 28.7812 464.506 28.6582C464.87 28.5306 465.276 28.4668 465.723 28.4668C466.26 28.4668 466.734 28.5579 467.145 28.7402C467.559 28.9225 467.883 29.1982 468.115 29.5674C468.352 29.932 468.471 30.39 468.471 30.9414V34.3867C468.471 34.6328 468.491 34.8949 468.532 35.1729C468.578 35.4508 468.644 35.6901 468.73 35.8906V36H467.411C467.347 35.8542 467.297 35.6605 467.261 35.4189C467.224 35.1729 467.206 34.945 467.206 34.7354ZM467.425 31.5156L467.438 32.4043H466.16C465.8 32.4043 465.479 32.4339 465.196 32.4932C464.914 32.5479 464.677 32.6322 464.485 32.7461C464.294 32.86 464.148 33.0036 464.048 33.1768C463.948 33.3454 463.897 33.5436 463.897 33.7715C463.897 34.0039 463.95 34.2158 464.055 34.4072C464.16 34.5986 464.317 34.7513 464.526 34.8652C464.741 34.9746 465.003 35.0293 465.312 35.0293C465.7 35.0293 466.042 34.9473 466.338 34.7832C466.634 34.6191 466.869 34.4186 467.042 34.1816C467.22 33.9447 467.315 33.7145 467.329 33.4912L467.869 34.0996C467.837 34.291 467.751 34.5029 467.609 34.7354C467.468 34.9678 467.279 35.1911 467.042 35.4053C466.81 35.6149 466.532 35.7904 466.208 35.9316C465.889 36.0684 465.529 36.1367 465.128 36.1367C464.627 36.1367 464.187 36.0387 463.809 35.8428C463.435 35.6468 463.143 35.3848 462.934 35.0566C462.729 34.724 462.626 34.3525 462.626 33.9424C462.626 33.5459 462.703 33.1973 462.858 32.8965C463.013 32.5911 463.237 32.3382 463.528 32.1377C463.82 31.9326 464.171 31.7777 464.581 31.6729C464.991 31.568 465.449 31.5156 465.955 31.5156H467.425ZM471.834 25.5V36H470.562V25.5H471.834ZM475.238 28.6035V36H473.967V28.6035H475.238ZM473.871 26.6416C473.871 26.4365 473.933 26.2633 474.056 26.1221C474.183 25.9808 474.37 25.9102 474.616 25.9102C474.858 25.9102 475.042 25.9808 475.17 26.1221C475.302 26.2633 475.368 26.4365 475.368 26.6416C475.368 26.8376 475.302 27.0062 475.17 27.1475C475.042 27.2842 474.858 27.3525 474.616 27.3525C474.37 27.3525 474.183 27.2842 474.056 27.1475C473.933 27.0062 473.871 26.8376 473.871 26.6416ZM482.778 34.9609V36H477.398V34.9609H482.778ZM482.58 29.499L477.686 36H476.913V35.0703L481.773 28.6035H482.58V29.499ZM482.02 28.6035V29.6494H476.968V28.6035H482.02ZM487.174 36.1367C486.659 36.1367 486.192 36.0501 485.772 35.877C485.358 35.6992 485 35.4508 484.699 35.1318C484.403 34.8128 484.175 34.4346 484.016 33.9971C483.856 33.5596 483.776 33.0811 483.776 32.5615V32.2744C483.776 31.6729 483.865 31.1374 484.043 30.668C484.221 30.194 484.462 29.793 484.768 29.4648C485.073 29.1367 485.419 28.8883 485.807 28.7197C486.194 28.5511 486.595 28.4668 487.01 28.4668C487.538 28.4668 487.994 28.5579 488.377 28.7402C488.764 28.9225 489.081 29.1777 489.327 29.5059C489.573 29.8294 489.756 30.2122 489.874 30.6543C489.993 31.0918 490.052 31.5703 490.052 32.0898V32.6572H484.528V31.625H488.787V31.5293C488.769 31.2012 488.701 30.8822 488.582 30.5723C488.468 30.2624 488.286 30.0072 488.035 29.8066C487.785 29.6061 487.443 29.5059 487.01 29.5059C486.723 29.5059 486.458 29.5674 486.217 29.6904C485.975 29.8089 485.768 29.9867 485.595 30.2236C485.422 30.4606 485.287 30.75 485.191 31.0918C485.096 31.4336 485.048 31.8278 485.048 32.2744V32.5615C485.048 32.9124 485.096 33.2428 485.191 33.5527C485.292 33.8581 485.435 34.127 485.622 34.3594C485.813 34.5918 486.044 34.7741 486.312 34.9062C486.586 35.0384 486.896 35.1045 487.242 35.1045C487.689 35.1045 488.067 35.0133 488.377 34.8311C488.687 34.6488 488.958 34.4049 489.19 34.0996L489.956 34.708C489.797 34.9495 489.594 35.1797 489.348 35.3984C489.102 35.6172 488.799 35.7949 488.438 35.9316C488.083 36.0684 487.661 36.1367 487.174 36.1367ZM496.19 34.5645V25.5H497.462V36H496.3L496.19 34.5645ZM491.214 32.3838V32.2402C491.214 31.6751 491.282 31.1624 491.419 30.7021C491.56 30.2373 491.758 29.8385 492.014 29.5059C492.273 29.1732 492.581 28.918 492.937 28.7402C493.297 28.5579 493.698 28.4668 494.14 28.4668C494.604 28.4668 495.01 28.5488 495.356 28.7129C495.707 28.8724 496.004 29.1071 496.245 29.417C496.491 29.7223 496.685 30.0915 496.826 30.5244C496.967 30.9574 497.065 31.4473 497.12 31.9941V32.623C497.07 33.1654 496.972 33.653 496.826 34.0859C496.685 34.5189 496.491 34.888 496.245 35.1934C496.004 35.4987 495.707 35.7334 495.356 35.8975C495.006 36.057 494.595 36.1367 494.126 36.1367C493.693 36.1367 493.297 36.0433 492.937 35.8564C492.581 35.6696 492.273 35.4076 492.014 35.0703C491.758 34.7331 491.56 34.3366 491.419 33.8809C491.282 33.4206 491.214 32.9215 491.214 32.3838ZM492.485 32.2402V32.3838C492.485 32.7529 492.522 33.0993 492.595 33.4229C492.672 33.7464 492.791 34.0312 492.95 34.2773C493.11 34.5234 493.312 34.7171 493.559 34.8584C493.805 34.9951 494.099 35.0635 494.44 35.0635C494.86 35.0635 495.204 34.9746 495.473 34.7969C495.746 34.6191 495.965 34.3844 496.129 34.0928C496.293 33.8011 496.421 33.4844 496.512 33.1426V31.4951C496.457 31.2445 496.377 31.0029 496.272 30.7705C496.172 30.5335 496.04 30.3239 495.876 30.1416C495.716 29.9548 495.518 29.8066 495.281 29.6973C495.049 29.5879 494.773 29.5332 494.454 29.5332C494.108 29.5332 493.809 29.6061 493.559 29.752C493.312 29.8932 493.11 30.0892 492.95 30.3398C492.791 30.5859 492.672 30.873 492.595 31.2012C492.522 31.5247 492.485 31.8711 492.485 32.2402ZM502.568 32.3838V32.2266C502.568 31.6934 502.646 31.1989 502.801 30.7432C502.956 30.2829 503.179 29.8841 503.471 29.5469C503.762 29.2051 504.116 28.9408 504.53 28.7539C504.945 28.5625 505.41 28.4668 505.925 28.4668C506.444 28.4668 506.911 28.5625 507.326 28.7539C507.745 28.9408 508.101 29.2051 508.393 29.5469C508.689 29.8841 508.914 30.2829 509.069 30.7432C509.224 31.1989 509.302 31.6934 509.302 32.2266V32.3838C509.302 32.917 509.224 33.4115 509.069 33.8672C508.914 34.3229 508.689 34.7217 508.393 35.0635C508.101 35.4007 507.748 35.665 507.333 35.8564C506.923 36.0433 506.458 36.1367 505.938 36.1367C505.419 36.1367 504.952 36.0433 504.537 35.8564C504.122 35.665 503.767 35.4007 503.471 35.0635C503.179 34.7217 502.956 34.3229 502.801 33.8672C502.646 33.4115 502.568 32.917 502.568 32.3838ZM503.833 32.2266V32.3838C503.833 32.7529 503.876 33.1016 503.963 33.4297C504.049 33.7533 504.179 34.0404 504.353 34.291C504.53 34.5417 504.751 34.7399 505.016 34.8857C505.28 35.027 505.588 35.0977 505.938 35.0977C506.285 35.0977 506.588 35.027 506.848 34.8857C507.112 34.7399 507.331 34.5417 507.504 34.291C507.677 34.0404 507.807 33.7533 507.894 33.4297C507.985 33.1016 508.03 32.7529 508.03 32.3838V32.2266C508.03 31.862 507.985 31.5179 507.894 31.1943C507.807 30.8662 507.675 30.5768 507.497 30.3262C507.324 30.071 507.105 29.8704 506.841 29.7246C506.581 29.5788 506.276 29.5059 505.925 29.5059C505.578 29.5059 505.273 29.5788 505.009 29.7246C504.749 29.8704 504.53 30.071 504.353 30.3262C504.179 30.5768 504.049 30.8662 503.963 31.1943C503.876 31.5179 503.833 31.862 503.833 32.2266ZM512.774 36H511.51V27.8242C511.51 27.291 511.605 26.8421 511.797 26.4775C511.993 26.1084 512.273 25.8304 512.638 25.6436C513.002 25.4521 513.435 25.3564 513.937 25.3564C514.082 25.3564 514.228 25.3656 514.374 25.3838C514.524 25.402 514.67 25.4294 514.812 25.4658L514.743 26.498C514.647 26.4753 514.538 26.4593 514.415 26.4502C514.297 26.4411 514.178 26.4365 514.06 26.4365C513.791 26.4365 513.558 26.4912 513.362 26.6006C513.171 26.7054 513.025 26.8604 512.925 27.0654C512.825 27.2705 512.774 27.5234 512.774 27.8242V36ZM514.347 28.6035V29.5742H510.341V28.6035H514.347ZM517.642 36H516.377V27.8242C516.377 27.291 516.473 26.8421 516.664 26.4775C516.86 26.1084 517.14 25.8304 517.505 25.6436C517.869 25.4521 518.302 25.3564 518.804 25.3564C518.95 25.3564 519.095 25.3656 519.241 25.3838C519.392 25.402 519.537 25.4294 519.679 25.4658L519.61 26.498C519.515 26.4753 519.405 26.4593 519.282 26.4502C519.164 26.4411 519.045 26.4365 518.927 26.4365C518.658 26.4365 518.425 26.4912 518.229 26.6006C518.038 26.7054 517.892 26.8604 517.792 27.0654C517.692 27.2705 517.642 27.5234 517.642 27.8242V36ZM519.214 28.6035V29.5742H515.208V28.6035H519.214ZM523.527 36.1367C523.012 36.1367 522.545 36.0501 522.126 35.877C521.711 35.6992 521.354 35.4508 521.053 35.1318C520.757 34.8128 520.529 34.4346 520.369 33.9971C520.21 33.5596 520.13 33.0811 520.13 32.5615V32.2744C520.13 31.6729 520.219 31.1374 520.396 30.668C520.574 30.194 520.816 29.793 521.121 29.4648C521.426 29.1367 521.773 28.8883 522.16 28.7197C522.548 28.5511 522.949 28.4668 523.363 28.4668C523.892 28.4668 524.348 28.5579 524.73 28.7402C525.118 28.9225 525.435 29.1777 525.681 29.5059C525.927 29.8294 526.109 30.2122 526.228 30.6543C526.346 31.0918 526.405 31.5703 526.405 32.0898V32.6572H520.882V31.625H525.141V31.5293C525.122 31.2012 525.054 30.8822 524.936 30.5723C524.822 30.2624 524.639 30.0072 524.389 29.8066C524.138 29.6061 523.796 29.5059 523.363 29.5059C523.076 29.5059 522.812 29.5674 522.57 29.6904C522.329 29.8089 522.121 29.9867 521.948 30.2236C521.775 30.4606 521.641 30.75 521.545 31.0918C521.449 31.4336 521.401 31.8278 521.401 32.2744V32.5615C521.401 32.9124 521.449 33.2428 521.545 33.5527C521.645 33.8581 521.789 34.127 521.976 34.3594C522.167 34.5918 522.397 34.7741 522.666 34.9062C522.939 35.0384 523.249 35.1045 523.596 35.1045C524.042 35.1045 524.421 35.0133 524.73 34.8311C525.04 34.6488 525.312 34.4049 525.544 34.0996L526.31 34.708C526.15 34.9495 525.947 35.1797 525.701 35.3984C525.455 35.6172 525.152 35.7949 524.792 35.9316C524.437 36.0684 524.015 36.1367 523.527 36.1367ZM529.146 29.7656V36H527.882V28.6035H529.112L529.146 29.7656ZM531.457 28.5625L531.45 29.7383C531.345 29.7155 531.245 29.7018 531.149 29.6973C531.058 29.6882 530.953 29.6836 530.835 29.6836C530.543 29.6836 530.286 29.7292 530.062 29.8203C529.839 29.9115 529.65 30.0391 529.495 30.2031C529.34 30.3672 529.217 30.5632 529.126 30.791C529.039 31.0143 528.982 31.2604 528.955 31.5293L528.6 31.7344C528.6 31.2878 528.643 30.8685 528.729 30.4766C528.821 30.0846 528.96 29.7383 529.146 29.4375C529.333 29.1322 529.57 28.8952 529.857 28.7266C530.149 28.5534 530.495 28.4668 530.896 28.4668C530.988 28.4668 531.092 28.4782 531.211 28.501C531.329 28.5192 531.411 28.5397 531.457 28.5625Z" fill="#6E6E6E"/>
<path d="M644.46 33.4844C644.46 33.252 644.424 33.0469 644.351 32.8691C644.282 32.6868 644.159 32.5228 643.981 32.377C643.808 32.2311 643.567 32.0921 643.257 31.96C642.951 31.8278 642.564 31.6934 642.095 31.5566C641.603 31.4108 641.158 31.249 640.762 31.0713C640.365 30.889 640.026 30.6816 639.743 30.4492C639.461 30.2168 639.244 29.9502 639.094 29.6494C638.943 29.3486 638.868 29.0046 638.868 28.6172C638.868 28.2298 638.948 27.8721 639.107 27.5439C639.267 27.2158 639.495 26.931 639.791 26.6895C640.092 26.4434 640.45 26.252 640.864 26.1152C641.279 25.9785 641.742 25.9102 642.252 25.9102C642.999 25.9102 643.633 26.0537 644.152 26.3408C644.676 26.6234 645.075 26.9948 645.349 27.4551C645.622 27.9108 645.759 28.3984 645.759 28.918H644.446C644.446 28.5443 644.367 28.2139 644.207 27.9268C644.048 27.6351 643.806 27.4072 643.482 27.2432C643.159 27.0745 642.749 26.9902 642.252 26.9902C641.783 26.9902 641.395 27.0609 641.09 27.2021C640.785 27.3434 640.557 27.5348 640.406 27.7764C640.26 28.0179 640.188 28.2936 640.188 28.6035C640.188 28.8132 640.231 29.0046 640.317 29.1777C640.409 29.3464 640.548 29.5036 640.734 29.6494C640.926 29.7952 641.167 29.9297 641.459 30.0527C641.755 30.1758 642.108 30.2943 642.519 30.4082C643.084 30.5677 643.571 30.7454 643.981 30.9414C644.392 31.1374 644.729 31.3584 644.993 31.6045C645.262 31.846 645.46 32.1217 645.588 32.4316C645.72 32.737 645.786 33.0833 645.786 33.4707C645.786 33.8763 645.704 34.2432 645.54 34.5713C645.376 34.8994 645.141 35.1797 644.836 35.4121C644.531 35.6445 644.164 35.8245 643.735 35.9521C643.312 36.0752 642.838 36.1367 642.313 36.1367C641.853 36.1367 641.4 36.0729 640.953 35.9453C640.511 35.8177 640.108 35.6263 639.743 35.3711C639.383 35.1159 639.094 34.8014 638.875 34.4277C638.661 34.0495 638.554 33.612 638.554 33.1152H639.866C639.866 33.457 639.932 33.751 640.064 33.9971C640.197 34.2386 640.377 34.4391 640.604 34.5986C640.837 34.7581 641.099 34.8766 641.391 34.9541C641.687 35.027 641.994 35.0635 642.313 35.0635C642.774 35.0635 643.163 34.9997 643.482 34.8721C643.801 34.7445 644.043 34.5622 644.207 34.3252C644.376 34.0882 644.46 33.8079 644.46 33.4844ZM648.65 28.6035V36H647.379V28.6035H648.65ZM647.283 26.6416C647.283 26.4365 647.345 26.2633 647.468 26.1221C647.595 25.9808 647.782 25.9102 648.028 25.9102C648.27 25.9102 648.454 25.9808 648.582 26.1221C648.714 26.2633 648.78 26.4365 648.78 26.6416C648.78 26.8376 648.714 27.0062 648.582 27.1475C648.454 27.2842 648.27 27.3525 648.028 27.3525C647.782 27.3525 647.595 27.2842 647.468 27.1475C647.345 27.0062 647.283 26.8376 647.283 26.6416ZM655.473 28.6035H656.621V35.8428C656.621 36.4945 656.489 37.0505 656.225 37.5107C655.96 37.971 655.591 38.3197 655.117 38.5566C654.648 38.7982 654.105 38.9189 653.49 38.9189C653.235 38.9189 652.934 38.8779 652.588 38.7959C652.246 38.7184 651.909 38.584 651.576 38.3926C651.248 38.2057 650.972 37.9528 650.749 37.6338L651.412 36.8818C651.722 37.2555 652.046 37.5153 652.383 37.6611C652.725 37.807 653.062 37.8799 653.395 37.8799C653.796 37.8799 654.142 37.8047 654.434 37.6543C654.725 37.5039 654.951 37.2806 655.11 36.9844C655.274 36.6927 655.356 36.3327 655.356 35.9043V30.2305L655.473 28.6035ZM650.38 32.3838V32.2402C650.38 31.6751 650.446 31.1624 650.578 30.7021C650.715 30.2373 650.909 29.8385 651.159 29.5059C651.414 29.1732 651.722 28.918 652.082 28.7402C652.442 28.5579 652.848 28.4668 653.299 28.4668C653.764 28.4668 654.169 28.5488 654.516 28.7129C654.867 28.8724 655.163 29.1071 655.404 29.417C655.65 29.7223 655.844 30.0915 655.985 30.5244C656.127 30.9574 656.225 31.4473 656.279 31.9941V32.623C656.229 33.1654 656.131 33.653 655.985 34.0859C655.844 34.5189 655.65 34.888 655.404 35.1934C655.163 35.4987 654.867 35.7334 654.516 35.8975C654.165 36.057 653.755 36.1367 653.285 36.1367C652.843 36.1367 652.442 36.0433 652.082 35.8564C651.727 35.6696 651.421 35.4076 651.166 35.0703C650.911 34.7331 650.715 34.3366 650.578 33.8809C650.446 33.4206 650.38 32.9215 650.38 32.3838ZM651.645 32.2402V32.3838C651.645 32.7529 651.681 33.0993 651.754 33.4229C651.831 33.7464 651.948 34.0312 652.103 34.2773C652.262 34.5234 652.465 34.7171 652.711 34.8584C652.957 34.9951 653.251 35.0635 653.593 35.0635C654.012 35.0635 654.358 34.9746 654.632 34.7969C654.905 34.6191 655.122 34.3844 655.281 34.0928C655.445 33.8011 655.573 33.4844 655.664 33.1426V31.4951C655.614 31.2445 655.536 31.0029 655.432 30.7705C655.331 30.5335 655.199 30.3239 655.035 30.1416C654.876 29.9548 654.677 29.8066 654.44 29.6973C654.203 29.5879 653.925 29.5332 653.606 29.5332C653.26 29.5332 652.962 29.6061 652.711 29.752C652.465 29.8932 652.262 30.0892 652.103 30.3398C651.948 30.5859 651.831 30.873 651.754 31.2012C651.681 31.5247 651.645 31.8711 651.645 32.2402ZM659.807 30.1826V36H658.542V28.6035H659.738L659.807 30.1826ZM659.506 32.0215L658.979 32.001C658.984 31.4951 659.059 31.028 659.205 30.5996C659.351 30.1667 659.556 29.7907 659.82 29.4717C660.085 29.1527 660.399 28.9066 660.764 28.7334C661.133 28.5557 661.541 28.4668 661.987 28.4668C662.352 28.4668 662.68 28.5169 662.972 28.6172C663.263 28.7129 663.512 28.8678 663.717 29.082C663.926 29.2962 664.086 29.5742 664.195 29.916C664.305 30.2533 664.359 30.6657 664.359 31.1533V36H663.088V31.1396C663.088 30.7523 663.031 30.4424 662.917 30.21C662.803 29.973 662.637 29.8021 662.418 29.6973C662.199 29.5879 661.93 29.5332 661.611 29.5332C661.297 29.5332 661.01 29.5993 660.75 29.7314C660.495 29.8636 660.274 30.0459 660.087 30.2783C659.905 30.5107 659.761 30.7773 659.656 31.0781C659.556 31.3743 659.506 31.6888 659.506 32.0215Z" fill="#6E6E6E"/>
<path d="M775.164 32.835H776.477C776.408 33.4639 776.228 34.0267 775.937 34.5234C775.645 35.0202 775.232 35.4144 774.699 35.7061C774.166 35.9932 773.501 36.1367 772.703 36.1367C772.12 36.1367 771.589 36.0273 771.11 35.8086C770.636 35.5898 770.229 35.2799 769.887 34.8789C769.545 34.4733 769.281 33.988 769.094 33.4229C768.911 32.8532 768.82 32.2197 768.82 31.5225V30.5312C768.82 29.834 768.911 29.2028 769.094 28.6377C769.281 28.068 769.547 27.5804 769.894 27.1748C770.244 26.7692 770.666 26.457 771.158 26.2383C771.65 26.0195 772.204 25.9102 772.819 25.9102C773.571 25.9102 774.207 26.0514 774.727 26.334C775.246 26.6165 775.649 27.0085 775.937 27.5098C776.228 28.0065 776.408 28.583 776.477 29.2393H775.164C775.1 28.7744 774.982 28.3757 774.809 28.043C774.635 27.7057 774.389 27.446 774.07 27.2637C773.751 27.0814 773.334 26.9902 772.819 26.9902C772.377 26.9902 771.988 27.0745 771.65 27.2432C771.318 27.4118 771.037 27.651 770.81 27.9609C770.586 28.2708 770.418 28.6423 770.304 29.0752C770.19 29.5081 770.133 29.9889 770.133 30.5176V31.5225C770.133 32.0101 770.183 32.4681 770.283 32.8965C770.388 33.3249 770.545 33.7008 770.755 34.0244C770.965 34.348 771.231 34.6032 771.555 34.79C771.878 34.9723 772.261 35.0635 772.703 35.0635C773.264 35.0635 773.71 34.9746 774.043 34.7969C774.376 34.6191 774.626 34.3639 774.795 34.0312C774.968 33.6986 775.091 33.2998 775.164 32.835ZM779.457 25.5V36H778.186V25.5H779.457ZM781.152 32.3838V32.2266C781.152 31.6934 781.23 31.1989 781.385 30.7432C781.54 30.2829 781.763 29.8841 782.055 29.5469C782.346 29.2051 782.7 28.9408 783.114 28.7539C783.529 28.5625 783.994 28.4668 784.509 28.4668C785.028 28.4668 785.495 28.5625 785.91 28.7539C786.329 28.9408 786.685 29.2051 786.977 29.5469C787.273 29.8841 787.498 30.2829 787.653 30.7432C787.808 31.1989 787.886 31.6934 787.886 32.2266V32.3838C787.886 32.917 787.808 33.4115 787.653 33.8672C787.498 34.3229 787.273 34.7217 786.977 35.0635C786.685 35.4007 786.332 35.665 785.917 35.8564C785.507 36.0433 785.042 36.1367 784.522 36.1367C784.003 36.1367 783.536 36.0433 783.121 35.8564C782.706 35.665 782.351 35.4007 782.055 35.0635C781.763 34.7217 781.54 34.3229 781.385 33.8672C781.23 33.4115 781.152 32.917 781.152 32.3838ZM782.417 32.2266V32.3838C782.417 32.7529 782.46 33.1016 782.547 33.4297C782.633 33.7533 782.763 34.0404 782.937 34.291C783.114 34.5417 783.335 34.7399 783.6 34.8857C783.864 35.027 784.172 35.0977 784.522 35.0977C784.869 35.0977 785.172 35.027 785.432 34.8857C785.696 34.7399 785.915 34.5417 786.088 34.291C786.261 34.0404 786.391 33.7533 786.478 33.4297C786.569 33.1016 786.614 32.7529 786.614 32.3838V32.2266C786.614 31.862 786.569 31.5179 786.478 31.1943C786.391 30.8662 786.259 30.5768 786.081 30.3262C785.908 30.071 785.689 29.8704 785.425 29.7246C785.165 29.5788 784.86 29.5059 784.509 29.5059C784.162 29.5059 783.857 29.5788 783.593 29.7246C783.333 29.8704 783.114 30.071 782.937 30.3262C782.763 30.5768 782.633 30.8662 782.547 31.1943C782.46 31.5179 782.417 31.862 782.417 32.2266ZM793.778 34.0381C793.778 33.8558 793.737 33.6872 793.655 33.5322C793.578 33.3727 793.416 33.2292 793.17 33.1016C792.928 32.9694 792.564 32.8555 792.076 32.7598C791.666 32.6732 791.295 32.5706 790.962 32.4521C790.634 32.3337 790.354 32.1901 790.121 32.0215C789.893 31.8529 789.718 31.6546 789.595 31.4268C789.472 31.1989 789.41 30.9323 789.41 30.627C789.41 30.3353 789.474 30.0596 789.602 29.7998C789.734 29.54 789.918 29.3099 790.155 29.1094C790.397 28.9089 790.686 28.7516 791.023 28.6377C791.361 28.5238 791.737 28.4668 792.151 28.4668C792.744 28.4668 793.25 28.5716 793.669 28.7812C794.088 28.9909 794.41 29.2712 794.633 29.6221C794.856 29.9684 794.968 30.3535 794.968 30.7773H793.703C793.703 30.5723 793.642 30.374 793.519 30.1826C793.4 29.9867 793.225 29.8249 792.992 29.6973C792.764 29.5697 792.484 29.5059 792.151 29.5059C791.8 29.5059 791.516 29.5605 791.297 29.6699C791.083 29.7747 790.925 29.9092 790.825 30.0732C790.729 30.2373 790.682 30.4105 790.682 30.5928C790.682 30.7295 790.704 30.8525 790.75 30.9619C790.8 31.0667 790.887 31.1647 791.01 31.2559C791.133 31.3424 791.306 31.4245 791.529 31.502C791.753 31.5794 792.037 31.6569 792.384 31.7344C792.99 31.8711 793.489 32.0352 793.881 32.2266C794.273 32.418 794.564 32.6527 794.756 32.9307C794.947 33.2087 795.043 33.5459 795.043 33.9424C795.043 34.266 794.975 34.5622 794.838 34.8311C794.706 35.0999 794.512 35.3324 794.257 35.5283C794.006 35.7197 793.705 35.8701 793.354 35.9795C793.008 36.0843 792.618 36.1367 792.186 36.1367C791.534 36.1367 790.982 36.0205 790.531 35.7881C790.08 35.5557 789.738 35.2549 789.506 34.8857C789.273 34.5166 789.157 34.127 789.157 33.7168H790.429C790.447 34.0632 790.547 34.3389 790.729 34.5439C790.912 34.7445 791.135 34.888 791.399 34.9746C791.664 35.0566 791.926 35.0977 792.186 35.0977C792.532 35.0977 792.821 35.0521 793.054 34.9609C793.291 34.8698 793.471 34.7445 793.594 34.585C793.717 34.4255 793.778 34.2432 793.778 34.0381ZM799.773 36.1367C799.258 36.1367 798.791 36.0501 798.372 35.877C797.957 35.6992 797.6 35.4508 797.299 35.1318C797.003 34.8128 796.775 34.4346 796.615 33.9971C796.456 33.5596 796.376 33.0811 796.376 32.5615V32.2744C796.376 31.6729 796.465 31.1374 796.643 30.668C796.82 30.194 797.062 29.793 797.367 29.4648C797.673 29.1367 798.019 28.8883 798.406 28.7197C798.794 28.5511 799.195 28.4668 799.609 28.4668C800.138 28.4668 800.594 28.5579 800.977 28.7402C801.364 28.9225 801.681 29.1777 801.927 29.5059C802.173 29.8294 802.355 30.2122 802.474 30.6543C802.592 31.0918 802.651 31.5703 802.651 32.0898V32.6572H797.128V31.625H801.387V31.5293C801.368 31.2012 801.3 30.8822 801.182 30.5723C801.068 30.2624 800.885 30.0072 800.635 29.8066C800.384 29.6061 800.042 29.5059 799.609 29.5059C799.322 29.5059 799.058 29.5674 798.816 29.6904C798.575 29.8089 798.368 29.9867 798.194 30.2236C798.021 30.4606 797.887 30.75 797.791 31.0918C797.695 31.4336 797.647 31.8278 797.647 32.2744V32.5615C797.647 32.9124 797.695 33.2428 797.791 33.5527C797.891 33.8581 798.035 34.127 798.222 34.3594C798.413 34.5918 798.643 34.7741 798.912 34.9062C799.186 35.0384 799.495 35.1045 799.842 35.1045C800.288 35.1045 800.667 35.0133 800.977 34.8311C801.286 34.6488 801.558 34.4049 801.79 34.0996L802.556 34.708C802.396 34.9495 802.193 35.1797 801.947 35.3984C801.701 35.6172 801.398 35.7949 801.038 35.9316C800.683 36.0684 800.261 36.1367 799.773 36.1367ZM809.439 30.4766L810.93 29.417C811.217 29.221 811.438 29.0251 811.593 28.8291C811.752 28.6286 811.832 28.3551 811.832 28.0088C811.832 27.7399 811.727 27.4961 811.518 27.2773C811.308 27.054 811.012 26.9424 810.629 26.9424C810.365 26.9424 810.141 27.0039 809.959 27.127C809.777 27.25 809.64 27.4141 809.549 27.6191C809.458 27.8197 809.412 28.0407 809.412 28.2822C809.412 28.4873 809.462 28.6992 809.562 28.918C809.663 29.1367 809.802 29.3646 809.979 29.6016C810.157 29.8385 810.36 30.0892 810.588 30.3535L815.298 36H813.78L809.918 31.3789C809.576 30.9779 809.271 30.611 809.002 30.2783C808.733 29.9411 808.521 29.6152 808.366 29.3008C808.216 28.9863 808.141 28.6605 808.141 28.3232C808.141 27.8037 808.243 27.3662 808.448 27.0107C808.658 26.6507 808.95 26.3773 809.323 26.1904C809.697 26.0036 810.134 25.9102 810.636 25.9102C811.123 25.9102 811.543 26.0081 811.894 26.2041C812.249 26.3955 812.522 26.6507 812.714 26.9697C812.905 27.2842 813.001 27.6305 813.001 28.0088C813.001 28.3278 812.944 28.6149 812.83 28.8701C812.716 29.1208 812.557 29.3509 812.352 29.5605C812.151 29.7702 811.916 29.9753 811.647 30.1758L809.672 31.6455C809.344 31.887 809.104 32.1172 808.954 32.3359C808.804 32.5547 808.706 32.7484 808.66 32.917C808.619 33.0856 808.599 33.2201 808.599 33.3203C808.599 33.6439 808.669 33.9401 808.811 34.209C808.952 34.4779 809.166 34.6943 809.453 34.8584C809.745 35.0179 810.109 35.0977 810.547 35.0977C810.93 35.0977 811.301 35.0111 811.661 34.8379C812.026 34.6602 812.352 34.4095 812.639 34.0859C812.926 33.7578 813.154 33.3682 813.322 32.917C813.495 32.4613 813.582 31.9577 813.582 31.4062H814.717C814.717 31.8574 814.674 32.2835 814.587 32.6846C814.5 33.0856 814.366 33.4593 814.184 33.8057C814.006 34.1475 813.778 34.4596 813.5 34.7422C813.459 34.7832 813.427 34.8311 813.404 34.8857C813.382 34.9404 813.35 34.9883 813.309 35.0293C812.967 35.3984 812.545 35.6764 812.044 35.8633C811.547 36.0456 811.048 36.1367 810.547 36.1367C809.886 36.1367 809.314 36.016 808.831 35.7744C808.353 35.5329 807.983 35.2002 807.724 34.7764C807.464 34.3525 807.334 33.8672 807.334 33.3203C807.334 32.901 807.423 32.5319 807.601 32.2129C807.783 31.8939 808.031 31.5954 808.346 31.3174C808.665 31.0394 809.029 30.7591 809.439 30.4766ZM824.574 28.6035H825.723V35.8428C825.723 36.4945 825.59 37.0505 825.326 37.5107C825.062 37.971 824.693 38.3197 824.219 38.5566C823.749 38.7982 823.207 38.9189 822.592 38.9189C822.337 38.9189 822.036 38.8779 821.689 38.7959C821.348 38.7184 821.01 38.584 820.678 38.3926C820.35 38.2057 820.074 37.9528 819.851 37.6338L820.514 36.8818C820.824 37.2555 821.147 37.5153 821.484 37.6611C821.826 37.807 822.163 37.8799 822.496 37.8799C822.897 37.8799 823.243 37.8047 823.535 37.6543C823.827 37.5039 824.052 37.2806 824.212 36.9844C824.376 36.6927 824.458 36.3327 824.458 35.9043V30.2305L824.574 28.6035ZM819.481 32.3838V32.2402C819.481 31.6751 819.548 31.1624 819.68 30.7021C819.816 30.2373 820.01 29.8385 820.261 29.5059C820.516 29.1732 820.824 28.918 821.184 28.7402C821.544 28.5579 821.949 28.4668 822.4 28.4668C822.865 28.4668 823.271 28.5488 823.617 28.7129C823.968 28.8724 824.264 29.1071 824.506 29.417C824.752 29.7223 824.946 30.0915 825.087 30.5244C825.228 30.9574 825.326 31.4473 825.381 31.9941V32.623C825.331 33.1654 825.233 33.653 825.087 34.0859C824.946 34.5189 824.752 34.888 824.506 35.1934C824.264 35.4987 823.968 35.7334 823.617 35.8975C823.266 36.057 822.856 36.1367 822.387 36.1367C821.945 36.1367 821.544 36.0433 821.184 35.8564C820.828 35.6696 820.523 35.4076 820.268 35.0703C820.012 34.7331 819.816 34.3366 819.68 33.8809C819.548 33.4206 819.481 32.9215 819.481 32.3838ZM820.746 32.2402V32.3838C820.746 32.7529 820.783 33.0993 820.855 33.4229C820.933 33.7464 821.049 34.0312 821.204 34.2773C821.364 34.5234 821.566 34.7171 821.812 34.8584C822.059 34.9951 822.353 35.0635 822.694 35.0635C823.114 35.0635 823.46 34.9746 823.733 34.7969C824.007 34.6191 824.223 34.3844 824.383 34.0928C824.547 33.8011 824.674 33.4844 824.766 33.1426V31.4951C824.715 31.2445 824.638 31.0029 824.533 30.7705C824.433 30.5335 824.301 30.3239 824.137 30.1416C823.977 29.9548 823.779 29.8066 823.542 29.6973C823.305 29.5879 823.027 29.5332 822.708 29.5332C822.362 29.5332 822.063 29.6061 821.812 29.752C821.566 29.8932 821.364 30.0892 821.204 30.3398C821.049 30.5859 820.933 30.873 820.855 31.2012C820.783 31.5247 820.746 31.8711 820.746 32.2402ZM830.713 36.1367C830.198 36.1367 829.731 36.0501 829.312 35.877C828.897 35.6992 828.539 35.4508 828.238 35.1318C827.942 34.8128 827.714 34.4346 827.555 33.9971C827.395 33.5596 827.315 33.0811 827.315 32.5615V32.2744C827.315 31.6729 827.404 31.1374 827.582 30.668C827.76 30.194 828.001 29.793 828.307 29.4648C828.612 29.1367 828.958 28.8883 829.346 28.7197C829.733 28.5511 830.134 28.4668 830.549 28.4668C831.077 28.4668 831.533 28.5579 831.916 28.7402C832.303 28.9225 832.62 29.1777 832.866 29.5059C833.112 29.8294 833.295 30.2122 833.413 30.6543C833.532 31.0918 833.591 31.5703 833.591 32.0898V32.6572H828.067V31.625H832.326V31.5293C832.308 31.2012 832.24 30.8822 832.121 30.5723C832.007 30.2624 831.825 30.0072 831.574 29.8066C831.324 29.6061 830.982 29.5059 830.549 29.5059C830.262 29.5059 829.997 29.5674 829.756 29.6904C829.514 29.8089 829.307 29.9867 829.134 30.2236C828.961 30.4606 828.826 30.75 828.73 31.0918C828.635 31.4336 828.587 31.8278 828.587 32.2744V32.5615C828.587 32.9124 828.635 33.2428 828.73 33.5527C828.831 33.8581 828.974 34.127 829.161 34.3594C829.353 34.5918 829.583 34.7741 829.852 34.9062C830.125 35.0384 830.435 35.1045 830.781 35.1045C831.228 35.1045 831.606 35.0133 831.916 34.8311C832.226 34.6488 832.497 34.4049 832.729 34.0996L833.495 34.708C833.336 34.9495 833.133 35.1797 832.887 35.3984C832.641 35.6172 832.338 35.7949 831.978 35.9316C831.622 36.0684 831.201 36.1367 830.713 36.1367ZM838.164 28.6035V29.5742H834.165V28.6035H838.164ZM835.519 26.8057H836.783V34.168C836.783 34.4186 836.822 34.6077 836.899 34.7354C836.977 34.863 837.077 34.9473 837.2 34.9883C837.323 35.0293 837.455 35.0498 837.597 35.0498C837.701 35.0498 837.811 35.0407 837.925 35.0225C838.043 34.9997 838.132 34.9814 838.191 34.9678L838.198 36C838.098 36.0319 837.966 36.0615 837.802 36.0889C837.642 36.1208 837.449 36.1367 837.221 36.1367C836.911 36.1367 836.626 36.0752 836.366 35.9521C836.106 35.8291 835.899 35.624 835.744 35.3369C835.594 35.0452 835.519 34.6533 835.519 34.1611V26.8057ZM844.385 30.0254V38.8438H843.113V28.6035H844.275L844.385 30.0254ZM849.368 32.2402V32.3838C849.368 32.9215 849.304 33.4206 849.177 33.8809C849.049 34.3366 848.862 34.7331 848.616 35.0703C848.375 35.4076 848.076 35.6696 847.721 35.8564C847.365 36.0433 846.957 36.1367 846.497 36.1367C846.028 36.1367 845.613 36.0592 845.253 35.9043C844.893 35.7493 844.588 35.5238 844.337 35.2275C844.086 34.9313 843.886 34.5758 843.735 34.1611C843.59 33.7464 843.489 33.2793 843.435 32.7598V31.9941C843.489 31.4473 843.592 30.9574 843.742 30.5244C843.893 30.0915 844.091 29.7223 844.337 29.417C844.588 29.1071 844.891 28.8724 845.246 28.7129C845.602 28.5488 846.012 28.4668 846.477 28.4668C846.941 28.4668 847.354 28.5579 847.714 28.7402C848.074 28.918 848.377 29.1732 848.623 29.5059C848.869 29.8385 849.054 30.2373 849.177 30.7021C849.304 31.1624 849.368 31.6751 849.368 32.2402ZM848.097 32.3838V32.2402C848.097 31.8711 848.058 31.5247 847.98 31.2012C847.903 30.873 847.782 30.5859 847.618 30.3398C847.459 30.0892 847.254 29.8932 847.003 29.752C846.752 29.6061 846.454 29.5332 846.107 29.5332C845.788 29.5332 845.51 29.5879 845.273 29.6973C845.041 29.8066 844.843 29.9548 844.679 30.1416C844.515 30.3239 844.38 30.5335 844.275 30.7705C844.175 31.0029 844.1 31.2445 844.05 31.4951V33.2656C844.141 33.5846 844.269 33.8854 844.433 34.168C844.597 34.446 844.815 34.6715 845.089 34.8447C845.362 35.0133 845.706 35.0977 846.121 35.0977C846.463 35.0977 846.757 35.027 847.003 34.8857C847.254 34.7399 847.459 34.5417 847.618 34.291C847.782 34.0404 847.903 33.7533 847.98 33.4297C848.058 33.1016 848.097 32.7529 848.097 32.3838ZM855.343 34.7354V30.9277C855.343 30.6361 855.284 30.3831 855.165 30.1689C855.051 29.9502 854.878 29.7816 854.646 29.6631C854.413 29.5446 854.126 29.4854 853.784 29.4854C853.465 29.4854 853.185 29.54 852.943 29.6494C852.706 29.7588 852.52 29.9023 852.383 30.0801C852.251 30.2578 852.185 30.4492 852.185 30.6543H850.92C850.92 30.39 850.988 30.1279 851.125 29.8682C851.262 29.6084 851.458 29.3737 851.713 29.1641C851.973 28.9499 852.283 28.7812 852.643 28.6582C853.007 28.5306 853.413 28.4668 853.859 28.4668C854.397 28.4668 854.871 28.5579 855.281 28.7402C855.696 28.9225 856.02 29.1982 856.252 29.5674C856.489 29.932 856.607 30.39 856.607 30.9414V34.3867C856.607 34.6328 856.628 34.8949 856.669 35.1729C856.715 35.4508 856.781 35.6901 856.867 35.8906V36H855.548C855.484 35.8542 855.434 35.6605 855.397 35.4189C855.361 35.1729 855.343 34.945 855.343 34.7354ZM855.562 31.5156L855.575 32.4043H854.297C853.937 32.4043 853.616 32.4339 853.333 32.4932C853.05 32.5479 852.813 32.6322 852.622 32.7461C852.431 32.86 852.285 33.0036 852.185 33.1768C852.084 33.3454 852.034 33.5436 852.034 33.7715C852.034 34.0039 852.087 34.2158 852.191 34.4072C852.296 34.5986 852.453 34.7513 852.663 34.8652C852.877 34.9746 853.139 35.0293 853.449 35.0293C853.837 35.0293 854.178 34.9473 854.475 34.7832C854.771 34.6191 855.006 34.4186 855.179 34.1816C855.356 33.9447 855.452 33.7145 855.466 33.4912L856.006 34.0996C855.974 34.291 855.887 34.5029 855.746 34.7354C855.605 34.9678 855.416 35.1911 855.179 35.4053C854.946 35.6149 854.668 35.7904 854.345 35.9316C854.026 36.0684 853.666 36.1367 853.265 36.1367C852.763 36.1367 852.324 36.0387 851.945 35.8428C851.572 35.6468 851.28 35.3848 851.07 35.0566C850.865 34.724 850.763 34.3525 850.763 33.9424C850.763 33.5459 850.84 33.1973 850.995 32.8965C851.15 32.5911 851.373 32.3382 851.665 32.1377C851.957 31.9326 852.308 31.7777 852.718 31.6729C853.128 31.568 853.586 31.5156 854.092 31.5156H855.562ZM859.971 28.6035V36H858.699V28.6035H859.971ZM858.604 26.6416C858.604 26.4365 858.665 26.2633 858.788 26.1221C858.916 25.9808 859.103 25.9102 859.349 25.9102C859.59 25.9102 859.775 25.9808 859.902 26.1221C860.035 26.2633 860.101 26.4365 860.101 26.6416C860.101 26.8376 860.035 27.0062 859.902 27.1475C859.775 27.2842 859.59 27.3525 859.349 27.3525C859.103 27.3525 858.916 27.2842 858.788 27.1475C858.665 27.0062 858.604 26.8376 858.604 26.6416ZM866.663 34.5645V25.5H867.935V36H866.772L866.663 34.5645ZM861.687 32.3838V32.2402C861.687 31.6751 861.755 31.1624 861.892 30.7021C862.033 30.2373 862.231 29.8385 862.486 29.5059C862.746 29.1732 863.054 28.918 863.409 28.7402C863.769 28.5579 864.17 28.4668 864.612 28.4668C865.077 28.4668 865.483 28.5488 865.829 28.7129C866.18 28.8724 866.476 29.1071 866.718 29.417C866.964 29.7223 867.158 30.0915 867.299 30.5244C867.44 30.9574 867.538 31.4473 867.593 31.9941V32.623C867.543 33.1654 867.445 33.653 867.299 34.0859C867.158 34.5189 866.964 34.888 866.718 35.1934C866.476 35.4987 866.18 35.7334 865.829 35.8975C865.478 36.057 865.068 36.1367 864.599 36.1367C864.166 36.1367 863.769 36.0433 863.409 35.8564C863.054 35.6696 862.746 35.4076 862.486 35.0703C862.231 34.7331 862.033 34.3366 861.892 33.8809C861.755 33.4206 861.687 32.9215 861.687 32.3838ZM862.958 32.2402V32.3838C862.958 32.7529 862.994 33.0993 863.067 33.4229C863.145 33.7464 863.263 34.0312 863.423 34.2773C863.582 34.5234 863.785 34.7171 864.031 34.8584C864.277 34.9951 864.571 35.0635 864.913 35.0635C865.332 35.0635 865.676 34.9746 865.945 34.7969C866.219 34.6191 866.438 34.3844 866.602 34.0928C866.766 33.8011 866.893 33.4844 866.984 33.1426V31.4951C866.93 31.2445 866.85 31.0029 866.745 30.7705C866.645 30.5335 866.513 30.3239 866.349 30.1416C866.189 29.9548 865.991 29.8066 865.754 29.6973C865.521 29.5879 865.246 29.5332 864.927 29.5332C864.58 29.5332 864.282 29.6061 864.031 29.752C863.785 29.8932 863.582 30.0892 863.423 30.3398C863.263 30.5859 863.145 30.873 863.067 31.2012C862.994 31.5247 862.958 31.8711 862.958 32.2402Z" fill="#6E6E6E"/>
<defs>
<clipPath id="clip0_0_1">
<rect width="12" height="12" fill="white" transform="translate(0 26)"/>
</clipPath>
<clipPath id="clip1_0_1">
<rect width="12" height="12" fill="white" transform="translate(191 26)"/>
</clipPath>
<clipPath id="clip2_0_1">
<rect width="12" height="12" fill="white" transform="translate(423 26)"/>
</clipPath>
<clipPath id="clip3_0_1">
<rect width="12" height="12" fill="white" transform="translate(618 26)"/>
</clipPath>
<clipPath id="clip4_0_1">
<rect width="12" height="12" fill="white" transform="translate(748 26)"/>
</clipPath>
</defs>
</svg>


