<svg width="144" height="24" viewBox="0 0 144 24" fill="none" xmlns="http://www.w3.org/2000/svg">
<g clip-path="url(#clip0_33_87)">
<path d="M138 10H23V13H138V10Z" fill="#1C85E8"/>
<path d="M24 12C24 5.37258 18.6274 0 12 0C5.37258 0 0 5.37258 0 12C0 18.6274 5.37258 24 12 24C18.6274 24 24 18.6274 24 12Z" fill="#00A87E"/>
<path fill-rule="evenodd" clip-rule="evenodd" d="M15.1804 8.39724C14.9841 8.20092 14.6658 8.20092 14.4695 8.39724L11.0584 11.8084L9.53053 10.2805C9.33421 10.0842 9.01591 10.0842 8.81959 10.2805L7.64724 11.4529C7.45092 11.6492 7.45092 11.9675 7.64724 12.1638L9.53054 14.0471L10.7029 15.2195C10.798 15.3146 10.9218 15.3636 11.0465 15.3666C11.179 15.3697 11.3126 15.3207 11.4138 15.2195L12.5862 14.0471L16.3528 10.2805C16.5491 10.0842 16.5491 9.76591 16.3528 9.56959L15.1804 8.39724Z" fill="white"/>
<path d="M62 12C62 6.47715 57.5228 2 52 2C46.4772 2 42 6.47715 42 12C42 17.5228 46.4772 22 52 22C57.5228 22 62 17.5228 62 12Z" fill="white" stroke="#1C85E8" stroke-width="4"/>
<path d="M102 12C102 6.47715 97.5228 2 92 2C86.4772 2 82 6.47715 82 12C82 17.5228 86.4772 22 92 22C97.5228 22 102 17.5228 102 12Z" fill="white" stroke="#1C85E8" stroke-width="4"/>
<path d="M142 12C142 6.47715 137.523 2 132 2C126.477 2 122 6.47715 122 12C122 17.5228 126.477 22 132 22C137.523 22 142 17.5228 142 12Z" fill="white" stroke="#1C85E8" stroke-width="4"/>
</g>
<defs>
<clipPath id="clip0_33_87">
<rect width="144" height="24" fill="white"/>
</clipPath>
</defs>
</svg>
