<svg width="24" height="24" viewBox="0 0 24 24" fill="none" xmlns="http://www.w3.org/2000/svg">
<g clip-path="url(#clip0_0_1)">
<path d="M5.25 3C5.25 2.30964 4.69036 1.75 4 1.75C3.30964 1.75 2.75 2.30964 2.75 3V3.75H2C1.30964 3.75 0.75 4.30964 0.75 5C0.75 5.69036 1.30964 6.25 2 6.25H2.75V22.05H5.25V6.25H21C21.6904 6.25 22.25 5.69036 22.25 5C22.25 4.30964 21.6904 3.75 21 3.75H5.25V3Z" fill="black"/>
<path d="M7 11C7 9.34315 8.34315 8 10 8H19C20.6569 8 22 9.34315 22 11V17C22 18.6569 20.6569 20 19 20H10C8.34315 20 7 18.6569 7 17V11Z" fill="black"/>
</g>
<path d="M5.8125 3.5C5.8125 2.9247 5.2995 2.45833 4.66667 2.45833C4.03384 2.45833 3.52083 2.9247 3.52083 3.5V4.125H2.83333C2.2005 4.125 1.6875 4.59137 1.6875 5.16667C1.6875 5.74197 2.2005 6.20833 2.83333 6.20833H3.52083V19.375H5.8125V6.20833H20.25C20.8829 6.20833 21.3958 5.74197 21.3958 5.16667C21.3958 4.59137 20.8829 4.125 20.25 4.125H5.8125V3.5Z" fill="black"/>
<path d="M7.41675 10.1667C7.41675 8.78596 8.64797 7.66667 10.1667 7.66667H18.4167C19.9356 7.66667 21.1667 8.78596 21.1667 10.1667V15.1667C21.1667 16.5474 19.9356 17.6667 18.4167 17.6667H10.1667C8.64797 17.6667 7.41675 16.5474 7.41675 15.1667V10.1667Z" fill="black"/>
<defs>
<clipPath id="clip0_0_1">
<rect width="24" height="24" fill="white"/>
</clipPath>
</defs>
</svg>


