<svg width="928" height="138" viewBox="0 0 928 138" fill="none" xmlns="http://www.w3.org/2000/svg">
<path d="M0.5 24C0.5 11.0213 11.0213 0.5 24 0.5H904C916.979 0.5 927.5 11.0213 927.5 24V114C927.5 126.979 916.979 137.5 904 137.5H24C11.0213 137.5 0.5 126.979 0.5 114V24Z" fill="white" stroke="#DEDEDE"/>
<g clip-path="url(#clip0_0_1)">
<path d="M171 43H56V46H171V43Z" fill="#1C85E8"/>
<path d="M57 45C57 38.3726 51.6274 33 45 33C38.3726 33 33 38.3726 33 45C33 51.6274 38.3726 57 45 57C51.6274 57 57 51.6274 57 45Z" fill="#00A87E"/>
<path fill-rule="evenodd" clip-rule="evenodd" d="M48.1804 41.3972C47.9841 41.2009 47.6658 41.2009 47.4695 41.3972L44.0584 44.8084L42.5305 43.2805C42.3342 43.0842 42.0159 43.0842 41.8196 43.2805L40.6472 44.4529C40.4509 44.6492 40.4509 44.9675 40.6472 45.1638L42.5305 47.0471L43.7029 48.2195C43.798 48.3146 43.9218 48.3636 44.0465 48.3666C44.179 48.3697 44.3126 48.3207 44.4138 48.2195L45.5862 47.0471L49.3528 43.2805C49.5491 43.0842 49.5491 42.7659 49.3528 42.5696L48.1804 41.3972Z" fill="white"/>
<path d="M95 45C95 39.4772 90.5228 35 85 35C79.4772 35 75 39.4772 75 45C75 50.5228 79.4772 55 85 55C90.5228 55 95 50.5228 95 45Z" fill="white" stroke="#1C85E8" stroke-width="4"/>
<path d="M135 45C135 39.4772 130.523 35 125 35C119.477 35 115 39.4772 115 45C115 50.5228 119.477 55 125 55C130.523 55 135 50.5228 135 45Z" fill="white" stroke="#1C85E8" stroke-width="4"/>
<path d="M175 45C175 39.4772 170.523 35 165 35C159.477 35 155 39.4772 155 45C155 50.5228 159.477 55 165 55C170.523 55 175 50.5228 175 45Z" fill="white" stroke="#1C85E8" stroke-width="4"/>
</g>
<g clip-path="url(#clip1_0_1)">
<path fill-rule="evenodd" clip-rule="evenodd" d="M878.086 61.1471C878.557 60.6424 879.348 60.6151 879.853 61.0862L887.353 68.0862C887.618 68.3339 887.763 68.6848 887.749 69.0476C887.735 69.4104 887.564 69.7493 887.281 69.9761L879.781 75.9761C879.242 76.4074 878.455 76.32 878.024 75.7809C877.593 75.2418 877.68 74.4552 878.219 74.0239L884.59 68.9272L878.147 62.9138C877.642 62.4428 877.615 61.6518 878.086 61.1471Z" fill="black"/>
</g>
<path fill-rule="evenodd" clip-rule="evenodd" d="M880.953 62.7647C881.149 62.4283 881.478 62.4101 881.689 62.7241L884.814 67.3908C884.924 67.5559 884.985 67.7899 884.979 68.0317C884.973 68.2736 884.902 68.4995 884.784 68.6507L881.659 72.6507C881.434 72.9383 881.106 72.88 880.927 72.5206C880.747 72.1612 880.783 71.6368 881.008 71.3493L883.663 67.9515L880.978 63.9425C880.768 63.6285 880.756 63.1012 880.953 62.7647Z" fill="black"/>
<path d="M39.4688 91.8438L42.8555 79.9375H44.4961L43.5469 84.5664L39.9023 97H38.2734L39.4688 91.8438ZM35.9648 79.9375L38.6602 91.6094L39.4688 97H37.8516L33.7148 79.9375H35.9648ZM48.8789 91.5977L51.5156 79.9375H53.7773L49.6523 97H48.0352L48.8789 91.5977ZM44.7422 79.9375L48.0352 91.8438L49.2305 97H47.6016L44.0859 84.5664L43.125 79.9375H44.7422ZM58.125 79V97H55.957V79H58.125ZM57.6094 90.1797L56.707 90.1445C56.7148 89.2773 56.8438 88.4766 57.0938 87.7422C57.3438 87 57.6953 86.3555 58.1484 85.8086C58.6016 85.2617 59.1406 84.8398 59.7656 84.543C60.3984 84.2383 61.0977 84.0859 61.8633 84.0859C62.4883 84.0859 63.0508 84.1719 63.5508 84.3438C64.0508 84.5078 64.4766 84.7734 64.8281 85.1406C65.1875 85.5078 65.4609 85.9844 65.6484 86.5703C65.8359 87.1484 65.9297 87.8555 65.9297 88.6914V97H63.75V88.668C63.75 88.0039 63.6523 87.4727 63.457 87.0742C63.2617 86.668 62.9766 86.375 62.6016 86.1953C62.2266 86.0078 61.7656 85.9141 61.2188 85.9141C60.6797 85.9141 60.1875 86.0273 59.7422 86.2539C59.3047 86.4805 58.9258 86.793 58.6055 87.1914C58.293 87.5898 58.0469 88.0469 57.8672 88.5625C57.6953 89.0703 57.6094 89.6094 57.6094 90.1797ZM76.6523 94.832V88.3047C76.6523 87.8047 76.5508 87.3711 76.3477 87.0039C76.1523 86.6289 75.8555 86.3398 75.457 86.1367C75.0586 85.9336 74.5664 85.832 73.9805 85.832C73.4336 85.832 72.9531 85.9258 72.5391 86.1133C72.1328 86.3008 71.8125 86.5469 71.5781 86.8516C71.3516 87.1562 71.2383 87.4844 71.2383 87.8359H69.0703C69.0703 87.3828 69.1875 86.9336 69.4219 86.4883C69.6562 86.043 69.9922 85.6406 70.4297 85.2812C70.875 84.9141 71.4062 84.625 72.0234 84.4141C72.6484 84.1953 73.3438 84.0859 74.1094 84.0859C75.0312 84.0859 75.8438 84.2422 76.5469 84.5547C77.2578 84.8672 77.8125 85.3398 78.2109 85.9727C78.6172 86.5977 78.8203 87.3828 78.8203 88.3281V94.2344C78.8203 94.6562 78.8555 95.1055 78.9258 95.582C79.0039 96.0586 79.1172 96.4688 79.2656 96.8125V97H77.0039C76.8945 96.75 76.8086 96.418 76.7461 96.0039C76.6836 95.582 76.6523 95.1914 76.6523 94.832ZM77.0273 89.3125L77.0508 90.8359H74.8594C74.2422 90.8359 73.6914 90.8867 73.207 90.9883C72.7227 91.082 72.3164 91.2266 71.9883 91.4219C71.6602 91.6172 71.4102 91.8633 71.2383 92.1602C71.0664 92.4492 70.9805 92.7891 70.9805 93.1797C70.9805 93.5781 71.0703 93.9414 71.25 94.2695C71.4297 94.5977 71.6992 94.8594 72.0586 95.0547C72.4258 95.2422 72.875 95.3359 73.4062 95.3359C74.0703 95.3359 74.6562 95.1953 75.1641 94.9141C75.6719 94.6328 76.0742 94.2891 76.3711 93.8828C76.6758 93.4766 76.8398 93.082 76.8633 92.6992L77.7891 93.7422C77.7344 94.0703 77.5859 94.4336 77.3438 94.832C77.1016 95.2305 76.7773 95.6133 76.3711 95.9805C75.9727 96.3398 75.4961 96.6406 74.9414 96.8828C74.3945 97.1172 73.7773 97.2344 73.0898 97.2344C72.2305 97.2344 71.4766 97.0664 70.8281 96.7305C70.1875 96.3945 69.6875 95.9453 69.3281 95.3828C68.9766 94.8125 68.8008 94.1758 68.8008 93.4727C68.8008 92.793 68.9336 92.1953 69.1992 91.6797C69.4648 91.1562 69.8477 90.7227 70.3477 90.3789C70.8477 90.0273 71.4492 89.7617 72.1523 89.582C72.8555 89.4023 73.6406 89.3125 74.5078 89.3125H77.0273ZM87.5391 84.3203V85.9844H80.6836V84.3203H87.5391ZM83.0039 81.2383H85.1719V93.8594C85.1719 94.2891 85.2383 94.6133 85.3711 94.832C85.5039 95.0508 85.6758 95.1953 85.8867 95.2656C86.0977 95.3359 86.3242 95.3711 86.5664 95.3711C86.7461 95.3711 86.9336 95.3555 87.1289 95.3242C87.332 95.2852 87.4844 95.2539 87.5859 95.2305L87.5977 97C87.4258 97.0547 87.1992 97.1055 86.918 97.1523C86.6445 97.207 86.3125 97.2344 85.9219 97.2344C85.3906 97.2344 84.9023 97.1289 84.457 96.918C84.0117 96.707 83.6562 96.3555 83.3906 95.8633C83.1328 95.3633 83.0039 94.6914 83.0039 93.8477V81.2383ZM98.3906 84.3203V97H96.2109V84.3203H98.3906ZM96.0469 80.957C96.0469 80.6055 96.1523 80.3086 96.3633 80.0664C96.582 79.8242 96.9023 79.7031 97.3242 79.7031C97.7383 79.7031 98.0547 79.8242 98.2734 80.0664C98.5 80.3086 98.6133 80.6055 98.6133 80.957C98.6133 81.293 98.5 81.582 98.2734 81.8242C98.0547 82.0586 97.7383 82.1758 97.3242 82.1758C96.9023 82.1758 96.582 82.0586 96.3633 81.8242C96.1523 81.582 96.0469 81.293 96.0469 80.957ZM107.18 84.3203V85.9844H100.324V84.3203H107.18ZM102.645 81.2383H104.812V93.8594C104.812 94.2891 104.879 94.6133 105.012 94.832C105.145 95.0508 105.316 95.1953 105.527 95.2656C105.738 95.3359 105.965 95.3711 106.207 95.3711C106.387 95.3711 106.574 95.3555 106.77 95.3242C106.973 95.2852 107.125 95.2539 107.227 95.2305L107.238 97C107.066 97.0547 106.84 97.1055 106.559 97.1523C106.285 97.207 105.953 97.2344 105.562 97.2344C105.031 97.2344 104.543 97.1289 104.098 96.918C103.652 96.707 103.297 96.3555 103.031 95.8633C102.773 95.3633 102.645 94.6914 102.645 93.8477V81.2383ZM111.914 79V80.5C111.914 80.9688 111.832 81.4648 111.668 81.9883C111.512 82.5039 111.281 83.0039 110.977 83.4883C110.672 83.9648 110.305 84.3828 109.875 84.7422L108.633 83.8867C109 83.3711 109.277 82.8438 109.465 82.3047C109.66 81.7578 109.758 81.168 109.758 80.5352V79H111.914ZM120.598 93.6367C120.598 93.3242 120.527 93.0352 120.387 92.7695C120.254 92.4961 119.977 92.25 119.555 92.0312C119.141 91.8047 118.516 91.6094 117.68 91.4453C116.977 91.2969 116.34 91.1211 115.77 90.918C115.207 90.7148 114.727 90.4688 114.328 90.1797C113.938 89.8906 113.637 89.5508 113.426 89.1602C113.215 88.7695 113.109 88.3125 113.109 87.7891C113.109 87.2891 113.219 86.8164 113.438 86.3711C113.664 85.9258 113.98 85.5312 114.387 85.1875C114.801 84.8438 115.297 84.5742 115.875 84.3789C116.453 84.1836 117.098 84.0859 117.809 84.0859C118.824 84.0859 119.691 84.2656 120.41 84.625C121.129 84.9844 121.68 85.4648 122.062 86.0664C122.445 86.6602 122.637 87.3203 122.637 88.0469H120.469C120.469 87.6953 120.363 87.3555 120.152 87.0273C119.949 86.6914 119.648 86.4141 119.25 86.1953C118.859 85.9766 118.379 85.8672 117.809 85.8672C117.207 85.8672 116.719 85.9609 116.344 86.1484C115.977 86.3281 115.707 86.5586 115.535 86.8398C115.371 87.1211 115.289 87.418 115.289 87.7305C115.289 87.9648 115.328 88.1758 115.406 88.3633C115.492 88.543 115.641 88.7109 115.852 88.8672C116.062 89.0156 116.359 89.1562 116.742 89.2891C117.125 89.4219 117.613 89.5547 118.207 89.6875C119.246 89.9219 120.102 90.2031 120.773 90.5312C121.445 90.8594 121.945 91.2617 122.273 91.7383C122.602 92.2148 122.766 92.793 122.766 93.4727C122.766 94.0273 122.648 94.5352 122.414 94.9961C122.188 95.457 121.855 95.8555 121.418 96.1914C120.988 96.5195 120.473 96.7773 119.871 96.9648C119.277 97.1445 118.609 97.2344 117.867 97.2344C116.75 97.2344 115.805 97.0352 115.031 96.6367C114.258 96.2383 113.672 95.7227 113.273 95.0898C112.875 94.457 112.676 93.7891 112.676 93.0859H114.855C114.887 93.6797 115.059 94.1523 115.371 94.5039C115.684 94.8477 116.066 95.0938 116.52 95.2422C116.973 95.3828 117.422 95.4531 117.867 95.4531C118.461 95.4531 118.957 95.375 119.355 95.2188C119.762 95.0625 120.07 94.8477 120.281 94.5742C120.492 94.3008 120.598 93.9883 120.598 93.6367ZM133.922 79V97H131.742V79H133.922ZM139.758 84.3203V97H137.578V84.3203H139.758ZM137.414 80.957C137.414 80.6055 137.52 80.3086 137.73 80.0664C137.949 79.8242 138.27 79.7031 138.691 79.7031C139.105 79.7031 139.422 79.8242 139.641 80.0664C139.867 80.3086 139.98 80.6055 139.98 80.957C139.98 81.293 139.867 81.582 139.641 81.8242C139.422 82.0586 139.105 82.1758 138.691 82.1758C138.27 82.1758 137.949 82.0586 137.73 81.8242C137.52 81.582 137.414 81.293 137.414 80.957ZM145.418 79V97H143.238V79H145.418ZM153.164 84.3203L147.633 90.2383L144.539 93.4492L144.363 91.1406L146.578 88.4922L150.516 84.3203H153.164ZM151.184 97L146.66 90.9531L147.785 89.0195L153.738 97H151.184ZM160.43 97.2344C159.547 97.2344 158.746 97.0859 158.027 96.7891C157.316 96.4844 156.703 96.0586 156.188 95.5117C155.68 94.9648 155.289 94.3164 155.016 93.5664C154.742 92.8164 154.605 91.9961 154.605 91.1055V90.6133C154.605 89.582 154.758 88.6641 155.062 87.8594C155.367 87.0469 155.781 86.3594 156.305 85.7969C156.828 85.2344 157.422 84.8086 158.086 84.5195C158.75 84.2305 159.438 84.0859 160.148 84.0859C161.055 84.0859 161.836 84.2422 162.492 84.5547C163.156 84.8672 163.699 85.3047 164.121 85.8672C164.543 86.4219 164.855 87.0781 165.059 87.8359C165.262 88.5859 165.363 89.4062 165.363 90.2969V91.2695H155.895V89.5H163.195V89.3359C163.164 88.7734 163.047 88.2266 162.844 87.6953C162.648 87.1641 162.336 86.7266 161.906 86.3828C161.477 86.0391 160.891 85.8672 160.148 85.8672C159.656 85.8672 159.203 85.9727 158.789 86.1836C158.375 86.3867 158.02 86.6914 157.723 87.0977C157.426 87.5039 157.195 88 157.031 88.5859C156.867 89.1719 156.785 89.8477 156.785 90.6133V91.1055C156.785 91.707 156.867 92.2734 157.031 92.8047C157.203 93.3281 157.449 93.7891 157.77 94.1875C158.098 94.5859 158.492 94.8984 158.953 95.125C159.422 95.3516 159.953 95.4648 160.547 95.4648C161.312 95.4648 161.961 95.3086 162.492 94.9961C163.023 94.6836 163.488 94.2656 163.887 93.7422L165.199 94.7852C164.926 95.1992 164.578 95.5938 164.156 95.9688C163.734 96.3438 163.215 96.6484 162.598 96.8828C161.988 97.1172 161.266 97.2344 160.43 97.2344ZM179.156 84.3203V85.9844H172.301V84.3203H179.156ZM174.621 81.2383H176.789V93.8594C176.789 94.2891 176.855 94.6133 176.988 94.832C177.121 95.0508 177.293 95.1953 177.504 95.2656C177.715 95.3359 177.941 95.3711 178.184 95.3711C178.363 95.3711 178.551 95.3555 178.746 95.3242C178.949 95.2852 179.102 95.2539 179.203 95.2305L179.215 97C179.043 97.0547 178.816 97.1055 178.535 97.1523C178.262 97.207 177.93 97.2344 177.539 97.2344C177.008 97.2344 176.52 97.1289 176.074 96.918C175.629 96.707 175.273 96.3555 175.008 95.8633C174.75 95.3633 174.621 94.6914 174.621 93.8477V81.2383ZM180.891 90.8008V90.5312C180.891 89.6172 181.023 88.7695 181.289 87.9883C181.555 87.1992 181.938 86.5156 182.438 85.9375C182.938 85.3516 183.543 84.8984 184.254 84.5781C184.965 84.25 185.762 84.0859 186.645 84.0859C187.535 84.0859 188.336 84.25 189.047 84.5781C189.766 84.8984 190.375 85.3516 190.875 85.9375C191.383 86.5156 191.77 87.1992 192.035 87.9883C192.301 88.7695 192.434 89.6172 192.434 90.5312V90.8008C192.434 91.7148 192.301 92.5625 192.035 93.3438C191.77 94.125 191.383 94.8086 190.875 95.3945C190.375 95.9727 189.77 96.4258 189.059 96.7539C188.355 97.0742 187.559 97.2344 186.668 97.2344C185.777 97.2344 184.977 97.0742 184.266 96.7539C183.555 96.4258 182.945 95.9727 182.438 95.3945C181.938 94.8086 181.555 94.125 181.289 93.3438C181.023 92.5625 180.891 91.7148 180.891 90.8008ZM183.059 90.5312V90.8008C183.059 91.4336 183.133 92.0312 183.281 92.5938C183.43 93.1484 183.652 93.6406 183.949 94.0703C184.254 94.5 184.633 94.8398 185.086 95.0898C185.539 95.332 186.066 95.4531 186.668 95.4531C187.262 95.4531 187.781 95.332 188.227 95.0898C188.68 94.8398 189.055 94.5 189.352 94.0703C189.648 93.6406 189.871 93.1484 190.02 92.5938C190.176 92.0312 190.254 91.4336 190.254 90.8008V90.5312C190.254 89.9062 190.176 89.3164 190.02 88.7617C189.871 88.1992 189.645 87.7031 189.34 87.2734C189.043 86.8359 188.668 86.4922 188.215 86.2422C187.77 85.9922 187.246 85.8672 186.645 85.8672C186.051 85.8672 185.527 85.9922 185.074 86.2422C184.629 86.4922 184.254 86.8359 183.949 87.2734C183.652 87.7031 183.43 88.1992 183.281 88.7617C183.133 89.3164 183.059 89.9062 183.059 90.5312ZM208.488 93.6367C208.488 93.3242 208.418 93.0352 208.277 92.7695C208.145 92.4961 207.867 92.25 207.445 92.0312C207.031 91.8047 206.406 91.6094 205.57 91.4453C204.867 91.2969 204.23 91.1211 203.66 90.918C203.098 90.7148 202.617 90.4688 202.219 90.1797C201.828 89.8906 201.527 89.5508 201.316 89.1602C201.105 88.7695 201 88.3125 201 87.7891C201 87.2891 201.109 86.8164 201.328 86.3711C201.555 85.9258 201.871 85.5312 202.277 85.1875C202.691 84.8438 203.188 84.5742 203.766 84.3789C204.344 84.1836 204.988 84.0859 205.699 84.0859C206.715 84.0859 207.582 84.2656 208.301 84.625C209.02 84.9844 209.57 85.4648 209.953 86.0664C210.336 86.6602 210.527 87.3203 210.527 88.0469H208.359C208.359 87.6953 208.254 87.3555 208.043 87.0273C207.84 86.6914 207.539 86.4141 207.141 86.1953C206.75 85.9766 206.27 85.8672 205.699 85.8672C205.098 85.8672 204.609 85.9609 204.234 86.1484C203.867 86.3281 203.598 86.5586 203.426 86.8398C203.262 87.1211 203.18 87.418 203.18 87.7305C203.18 87.9648 203.219 88.1758 203.297 88.3633C203.383 88.543 203.531 88.7109 203.742 88.8672C203.953 89.0156 204.25 89.1562 204.633 89.2891C205.016 89.4219 205.504 89.5547 206.098 89.6875C207.137 89.9219 207.992 90.2031 208.664 90.5312C209.336 90.8594 209.836 91.2617 210.164 91.7383C210.492 92.2148 210.656 92.793 210.656 93.4727C210.656 94.0273 210.539 94.5352 210.305 94.9961C210.078 95.457 209.746 95.8555 209.309 96.1914C208.879 96.5195 208.363 96.7773 207.762 96.9648C207.168 97.1445 206.5 97.2344 205.758 97.2344C204.641 97.2344 203.695 97.0352 202.922 96.6367C202.148 96.2383 201.562 95.7227 201.164 95.0898C200.766 94.457 200.566 93.7891 200.566 93.0859H202.746C202.777 93.6797 202.949 94.1523 203.262 94.5039C203.574 94.8477 203.957 95.0938 204.41 95.2422C204.863 95.3828 205.312 95.4531 205.758 95.4531C206.352 95.4531 206.848 95.375 207.246 95.2188C207.652 95.0625 207.961 94.8477 208.172 94.5742C208.383 94.3008 208.488 93.9883 208.488 93.6367ZM218.766 97.2344C217.883 97.2344 217.082 97.0859 216.363 96.7891C215.652 96.4844 215.039 96.0586 214.523 95.5117C214.016 94.9648 213.625 94.3164 213.352 93.5664C213.078 92.8164 212.941 91.9961 212.941 91.1055V90.6133C212.941 89.582 213.094 88.6641 213.398 87.8594C213.703 87.0469 214.117 86.3594 214.641 85.7969C215.164 85.2344 215.758 84.8086 216.422 84.5195C217.086 84.2305 217.773 84.0859 218.484 84.0859C219.391 84.0859 220.172 84.2422 220.828 84.5547C221.492 84.8672 222.035 85.3047 222.457 85.8672C222.879 86.4219 223.191 87.0781 223.395 87.8359C223.598 88.5859 223.699 89.4062 223.699 90.2969V91.2695H214.23V89.5H221.531V89.3359C221.5 88.7734 221.383 88.2266 221.18 87.6953C220.984 87.1641 220.672 86.7266 220.242 86.3828C219.812 86.0391 219.227 85.8672 218.484 85.8672C217.992 85.8672 217.539 85.9727 217.125 86.1836C216.711 86.3867 216.355 86.6914 216.059 87.0977C215.762 87.5039 215.531 88 215.367 88.5859C215.203 89.1719 215.121 89.8477 215.121 90.6133V91.1055C215.121 91.707 215.203 92.2734 215.367 92.8047C215.539 93.3281 215.785 93.7891 216.105 94.1875C216.434 94.5859 216.828 94.8984 217.289 95.125C217.758 95.3516 218.289 95.4648 218.883 95.4648C219.648 95.4648 220.297 95.3086 220.828 94.9961C221.359 94.6836 221.824 94.2656 222.223 93.7422L223.535 94.7852C223.262 95.1992 222.914 95.5938 222.492 95.9688C222.07 96.3438 221.551 96.6484 220.934 96.8828C220.324 97.1172 219.602 97.2344 218.766 97.2344ZM228.586 79V97H226.406V79H228.586ZM234.422 79V97H232.242V79H234.422ZM239.871 94.4219V96.168C239.871 96.8789 239.691 97.6289 239.332 98.418C238.973 99.2148 238.469 99.8789 237.82 100.41L236.59 99.5547C236.84 99.2109 237.051 98.8594 237.223 98.5C237.395 98.1484 237.523 97.7812 237.609 97.3984C237.703 97.0234 237.75 96.625 237.75 96.2031V94.4219H239.871ZM248.578 79H250.758V94.5391L250.57 97H248.578V79ZM259.324 90.5547V90.8008C259.324 91.7227 259.215 92.5781 258.996 93.3672C258.777 94.1484 258.457 94.8281 258.035 95.4062C257.613 95.9844 257.098 96.4336 256.488 96.7539C255.879 97.0742 255.18 97.2344 254.391 97.2344C253.586 97.2344 252.879 97.0977 252.27 96.8242C251.668 96.543 251.16 96.1406 250.746 95.6172C250.332 95.0938 250 94.4609 249.75 93.7188C249.508 92.9766 249.34 92.1406 249.246 91.2109V90.1328C249.34 89.1953 249.508 88.3555 249.75 87.6133C250 86.8711 250.332 86.2383 250.746 85.7148C251.16 85.1836 251.668 84.7812 252.27 84.5078C252.871 84.2266 253.57 84.0859 254.367 84.0859C255.164 84.0859 255.871 84.2422 256.488 84.5547C257.105 84.8594 257.621 85.2969 258.035 85.8672C258.457 86.4375 258.777 87.1211 258.996 87.918C259.215 88.707 259.324 89.5859 259.324 90.5547ZM257.145 90.8008V90.5547C257.145 89.9219 257.086 89.3281 256.969 88.7734C256.852 88.2109 256.664 87.7188 256.406 87.2969C256.148 86.8672 255.809 86.5312 255.387 86.2891C254.965 86.0391 254.445 85.9141 253.828 85.9141C253.281 85.9141 252.805 86.0078 252.398 86.1953C252 86.3828 251.66 86.6367 251.379 86.957C251.098 87.2695 250.867 87.6289 250.688 88.0352C250.516 88.4336 250.387 88.8477 250.301 89.2773V92.1016C250.426 92.6484 250.629 93.1758 250.91 93.6836C251.199 94.1836 251.582 94.5938 252.059 94.9141C252.543 95.2344 253.141 95.3945 253.852 95.3945C254.438 95.3945 254.938 95.2773 255.352 95.043C255.773 94.8008 256.113 94.4688 256.371 94.0469C256.637 93.625 256.832 93.1367 256.957 92.582C257.082 92.0273 257.145 91.4336 257.145 90.8008ZM269.824 94.0703V84.3203H272.004V97H269.93L269.824 94.0703ZM270.234 91.3984L271.137 91.375C271.137 92.2188 271.047 93 270.867 93.7188C270.695 94.4297 270.414 95.0469 270.023 95.5703C269.633 96.0938 269.121 96.5039 268.488 96.8008C267.855 97.0898 267.086 97.2344 266.18 97.2344C265.562 97.2344 264.996 97.1445 264.48 96.9648C263.973 96.7852 263.535 96.5078 263.168 96.1328C262.801 95.7578 262.516 95.2695 262.312 94.668C262.117 94.0664 262.02 93.3438 262.02 92.5V84.3203H264.188V92.5234C264.188 93.0938 264.25 93.5664 264.375 93.9414C264.508 94.3086 264.684 94.6016 264.902 94.8203C265.129 95.0312 265.379 95.1797 265.652 95.2656C265.934 95.3516 266.223 95.3945 266.52 95.3945C267.441 95.3945 268.172 95.2188 268.711 94.8672C269.25 94.5078 269.637 94.0273 269.871 93.4258C270.113 92.8164 270.234 92.1406 270.234 91.3984ZM278.871 95.6875L282.398 84.3203H284.719L279.633 98.957C279.516 99.2695 279.359 99.6055 279.164 99.9648C278.977 100.332 278.734 100.68 278.438 101.008C278.141 101.336 277.781 101.602 277.359 101.805C276.945 102.016 276.449 102.121 275.871 102.121C275.699 102.121 275.48 102.098 275.215 102.051C274.949 102.004 274.762 101.965 274.652 101.934L274.641 100.176C274.703 100.184 274.801 100.191 274.934 100.199C275.074 100.215 275.172 100.223 275.227 100.223C275.719 100.223 276.137 100.156 276.48 100.023C276.824 99.8984 277.113 99.6836 277.348 99.3789C277.59 99.082 277.797 98.6719 277.969 98.1484L278.871 95.6875ZM276.281 84.3203L279.574 94.1641L280.137 96.4492L278.578 97.2461L273.914 84.3203H276.281ZM287.379 94.4219V96.168C287.379 96.8789 287.199 97.6289 286.84 98.418C286.48 99.2148 285.977 99.8789 285.328 100.41L284.098 99.5547C284.348 99.2109 284.559 98.8594 284.73 98.5C284.902 98.1484 285.031 97.7812 285.117 97.3984C285.211 97.0234 285.258 96.625 285.258 96.2031V94.4219H287.379ZM303.574 94.832V88.3047C303.574 87.8047 303.473 87.3711 303.27 87.0039C303.074 86.6289 302.777 86.3398 302.379 86.1367C301.98 85.9336 301.488 85.832 300.902 85.832C300.355 85.832 299.875 85.9258 299.461 86.1133C299.055 86.3008 298.734 86.5469 298.5 86.8516C298.273 87.1562 298.16 87.4844 298.16 87.8359H295.992C295.992 87.3828 296.109 86.9336 296.344 86.4883C296.578 86.043 296.914 85.6406 297.352 85.2812C297.797 84.9141 298.328 84.625 298.945 84.4141C299.57 84.1953 300.266 84.0859 301.031 84.0859C301.953 84.0859 302.766 84.2422 303.469 84.5547C304.18 84.8672 304.734 85.3398 305.133 85.9727C305.539 86.5977 305.742 87.3828 305.742 88.3281V94.2344C305.742 94.6562 305.777 95.1055 305.848 95.582C305.926 96.0586 306.039 96.4688 306.188 96.8125V97H303.926C303.816 96.75 303.73 96.418 303.668 96.0039C303.605 95.582 303.574 95.1914 303.574 94.832ZM303.949 89.3125L303.973 90.8359H301.781C301.164 90.8359 300.613 90.8867 300.129 90.9883C299.645 91.082 299.238 91.2266 298.91 91.4219C298.582 91.6172 298.332 91.8633 298.16 92.1602C297.988 92.4492 297.902 92.7891 297.902 93.1797C297.902 93.5781 297.992 93.9414 298.172 94.2695C298.352 94.5977 298.621 94.8594 298.98 95.0547C299.348 95.2422 299.797 95.3359 300.328 95.3359C300.992 95.3359 301.578 95.1953 302.086 94.9141C302.594 94.6328 302.996 94.2891 303.293 93.8828C303.598 93.4766 303.762 93.082 303.785 92.6992L304.711 93.7422C304.656 94.0703 304.508 94.4336 304.266 94.832C304.023 95.2305 303.699 95.6133 303.293 95.9805C302.895 96.3398 302.418 96.6406 301.863 96.8828C301.316 97.1172 300.699 97.2344 300.012 97.2344C299.152 97.2344 298.398 97.0664 297.75 96.7305C297.109 96.3945 296.609 95.9453 296.25 95.3828C295.898 94.8125 295.723 94.1758 295.723 93.4727C295.723 92.793 295.855 92.1953 296.121 91.6797C296.387 91.1562 296.77 90.7227 297.27 90.3789C297.77 90.0273 298.371 89.7617 299.074 89.582C299.777 89.4023 300.562 89.3125 301.43 89.3125H303.949ZM311.32 87.0273V97H309.152V84.3203H311.203L311.32 87.0273ZM310.805 90.1797L309.902 90.1445C309.91 89.2773 310.039 88.4766 310.289 87.7422C310.539 87 310.891 86.3555 311.344 85.8086C311.797 85.2617 312.336 84.8398 312.961 84.543C313.594 84.2383 314.293 84.0859 315.059 84.0859C315.684 84.0859 316.246 84.1719 316.746 84.3438C317.246 84.5078 317.672 84.7734 318.023 85.1406C318.383 85.5078 318.656 85.9844 318.844 86.5703C319.031 87.1484 319.125 87.8555 319.125 88.6914V97H316.945V88.668C316.945 88.0039 316.848 87.4727 316.652 87.0742C316.457 86.668 316.172 86.375 315.797 86.1953C315.422 86.0078 314.961 85.9141 314.414 85.9141C313.875 85.9141 313.383 86.0273 312.938 86.2539C312.5 86.4805 312.121 86.793 311.801 87.1914C311.488 87.5898 311.242 88.0469 311.062 88.5625C310.891 89.0703 310.805 89.6094 310.805 90.1797ZM330.41 94.5391V79H332.59V97H330.598L330.41 94.5391ZM321.879 90.8008V90.5547C321.879 89.5859 321.996 88.707 322.23 87.918C322.473 87.1211 322.812 86.4375 323.25 85.8672C323.695 85.2969 324.223 84.8594 324.832 84.5547C325.449 84.2422 326.137 84.0859 326.895 84.0859C327.691 84.0859 328.387 84.2266 328.98 84.5078C329.582 84.7812 330.09 85.1836 330.504 85.7148C330.926 86.2383 331.258 86.8711 331.5 87.6133C331.742 88.3555 331.91 89.1953 332.004 90.1328V91.2109C331.918 92.1406 331.75 92.9766 331.5 93.7188C331.258 94.4609 330.926 95.0938 330.504 95.6172C330.09 96.1406 329.582 96.543 328.98 96.8242C328.379 97.0977 327.676 97.2344 326.871 97.2344C326.129 97.2344 325.449 97.0742 324.832 96.7539C324.223 96.4336 323.695 95.9844 323.25 95.4062C322.812 94.8281 322.473 94.1484 322.23 93.3672C321.996 92.5781 321.879 91.7227 321.879 90.8008ZM324.059 90.5547V90.8008C324.059 91.4336 324.121 92.0273 324.246 92.582C324.379 93.1367 324.582 93.625 324.855 94.0469C325.129 94.4688 325.477 94.8008 325.898 95.043C326.32 95.2773 326.824 95.3945 327.41 95.3945C328.129 95.3945 328.719 95.2422 329.18 94.9375C329.648 94.6328 330.023 94.2305 330.305 93.7305C330.586 93.2305 330.805 92.6875 330.961 92.1016V89.2773C330.867 88.8477 330.73 88.4336 330.551 88.0352C330.379 87.6289 330.152 87.2695 329.871 86.957C329.598 86.6367 329.258 86.3828 328.852 86.1953C328.453 86.0078 327.98 85.9141 327.434 85.9141C326.84 85.9141 326.328 86.0391 325.898 86.2891C325.477 86.5312 325.129 86.8672 324.855 87.2969C324.582 87.7188 324.379 88.2109 324.246 88.7734C324.121 89.3281 324.059 89.9219 324.059 90.5547ZM346.992 95.4531C347.508 95.4531 347.984 95.3477 348.422 95.1367C348.859 94.9258 349.219 94.6367 349.5 94.2695C349.781 93.8945 349.941 93.4688 349.98 92.9922H352.043C352.004 93.7422 351.75 94.4414 351.281 95.0898C350.82 95.7305 350.215 96.25 349.465 96.6484C348.715 97.0391 347.891 97.2344 346.992 97.2344C346.039 97.2344 345.207 97.0664 344.496 96.7305C343.793 96.3945 343.207 95.9336 342.738 95.3477C342.277 94.7617 341.93 94.0898 341.695 93.332C341.469 92.5664 341.355 91.7578 341.355 90.9062V90.4141C341.355 89.5625 341.469 88.7578 341.695 88C341.93 87.2344 342.277 86.5586 342.738 85.9727C343.207 85.3867 343.793 84.9258 344.496 84.5898C345.207 84.2539 346.039 84.0859 346.992 84.0859C347.984 84.0859 348.852 84.2891 349.594 84.6953C350.336 85.0938 350.918 85.6406 351.34 86.3359C351.77 87.0234 352.004 87.8047 352.043 88.6797H349.98C349.941 88.1562 349.793 87.6836 349.535 87.2617C349.285 86.8398 348.941 86.5039 348.504 86.2539C348.074 85.9961 347.57 85.8672 346.992 85.8672C346.328 85.8672 345.77 86 345.316 86.2656C344.871 86.5234 344.516 86.875 344.25 87.3203C343.992 87.7578 343.805 88.2461 343.688 88.7852C343.578 89.3164 343.523 89.8594 343.523 90.4141V90.9062C343.523 91.4609 343.578 92.0078 343.688 92.5469C343.797 93.0859 343.98 93.5742 344.238 94.0117C344.504 94.4492 344.859 94.8008 345.305 95.0664C345.758 95.3242 346.32 95.4531 346.992 95.4531ZM356.836 79V97H354.656V79H356.836ZM359.742 90.8008V90.5312C359.742 89.6172 359.875 88.7695 360.141 87.9883C360.406 87.1992 360.789 86.5156 361.289 85.9375C361.789 85.3516 362.395 84.8984 363.105 84.5781C363.816 84.25 364.613 84.0859 365.496 84.0859C366.387 84.0859 367.188 84.25 367.898 84.5781C368.617 84.8984 369.227 85.3516 369.727 85.9375C370.234 86.5156 370.621 87.1992 370.887 87.9883C371.152 88.7695 371.285 89.6172 371.285 90.5312V90.8008C371.285 91.7148 371.152 92.5625 370.887 93.3438C370.621 94.125 370.234 94.8086 369.727 95.3945C369.227 95.9727 368.621 96.4258 367.91 96.7539C367.207 97.0742 366.41 97.2344 365.52 97.2344C364.629 97.2344 363.828 97.0742 363.117 96.7539C362.406 96.4258 361.797 95.9727 361.289 95.3945C360.789 94.8086 360.406 94.125 360.141 93.3438C359.875 92.5625 359.742 91.7148 359.742 90.8008ZM361.91 90.5312V90.8008C361.91 91.4336 361.984 92.0312 362.133 92.5938C362.281 93.1484 362.504 93.6406 362.801 94.0703C363.105 94.5 363.484 94.8398 363.938 95.0898C364.391 95.332 364.918 95.4531 365.52 95.4531C366.113 95.4531 366.633 95.332 367.078 95.0898C367.531 94.8398 367.906 94.5 368.203 94.0703C368.5 93.6406 368.723 93.1484 368.871 92.5938C369.027 92.0312 369.105 91.4336 369.105 90.8008V90.5312C369.105 89.9062 369.027 89.3164 368.871 88.7617C368.723 88.1992 368.496 87.7031 368.191 87.2734C367.895 86.8359 367.52 86.4922 367.066 86.2422C366.621 85.9922 366.098 85.8672 365.496 85.8672C364.902 85.8672 364.379 85.9922 363.926 86.2422C363.48 86.4922 363.105 86.8359 362.801 87.2734C362.504 87.7031 362.281 88.1992 362.133 88.7617C361.984 89.3164 361.91 89.9062 361.91 90.5312ZM381.387 93.6367C381.387 93.3242 381.316 93.0352 381.176 92.7695C381.043 92.4961 380.766 92.25 380.344 92.0312C379.93 91.8047 379.305 91.6094 378.469 91.4453C377.766 91.2969 377.129 91.1211 376.559 90.918C375.996 90.7148 375.516 90.4688 375.117 90.1797C374.727 89.8906 374.426 89.5508 374.215 89.1602C374.004 88.7695 373.898 88.3125 373.898 87.7891C373.898 87.2891 374.008 86.8164 374.227 86.3711C374.453 85.9258 374.77 85.5312 375.176 85.1875C375.59 84.8438 376.086 84.5742 376.664 84.3789C377.242 84.1836 377.887 84.0859 378.598 84.0859C379.613 84.0859 380.48 84.2656 381.199 84.625C381.918 84.9844 382.469 85.4648 382.852 86.0664C383.234 86.6602 383.426 87.3203 383.426 88.0469H381.258C381.258 87.6953 381.152 87.3555 380.941 87.0273C380.738 86.6914 380.438 86.4141 380.039 86.1953C379.648 85.9766 379.168 85.8672 378.598 85.8672C377.996 85.8672 377.508 85.9609 377.133 86.1484C376.766 86.3281 376.496 86.5586 376.324 86.8398C376.16 87.1211 376.078 87.418 376.078 87.7305C376.078 87.9648 376.117 88.1758 376.195 88.3633C376.281 88.543 376.43 88.7109 376.641 88.8672C376.852 89.0156 377.148 89.1562 377.531 89.2891C377.914 89.4219 378.402 89.5547 378.996 89.6875C380.035 89.9219 380.891 90.2031 381.562 90.5312C382.234 90.8594 382.734 91.2617 383.062 91.7383C383.391 92.2148 383.555 92.793 383.555 93.4727C383.555 94.0273 383.438 94.5352 383.203 94.9961C382.977 95.457 382.645 95.8555 382.207 96.1914C381.777 96.5195 381.262 96.7773 380.66 96.9648C380.066 97.1445 379.398 97.2344 378.656 97.2344C377.539 97.2344 376.594 97.0352 375.82 96.6367C375.047 96.2383 374.461 95.7227 374.062 95.0898C373.664 94.457 373.465 93.7891 373.465 93.0859H375.645C375.676 93.6797 375.848 94.1523 376.16 94.5039C376.473 94.8477 376.855 95.0938 377.309 95.2422C377.762 95.3828 378.211 95.4531 378.656 95.4531C379.25 95.4531 379.746 95.375 380.145 95.2188C380.551 95.0625 380.859 94.8477 381.07 94.5742C381.281 94.3008 381.387 93.9883 381.387 93.6367ZM391.664 97.2344C390.781 97.2344 389.98 97.0859 389.262 96.7891C388.551 96.4844 387.938 96.0586 387.422 95.5117C386.914 94.9648 386.523 94.3164 386.25 93.5664C385.977 92.8164 385.84 91.9961 385.84 91.1055V90.6133C385.84 89.582 385.992 88.6641 386.297 87.8594C386.602 87.0469 387.016 86.3594 387.539 85.7969C388.062 85.2344 388.656 84.8086 389.32 84.5195C389.984 84.2305 390.672 84.0859 391.383 84.0859C392.289 84.0859 393.07 84.2422 393.727 84.5547C394.391 84.8672 394.934 85.3047 395.355 85.8672C395.777 86.4219 396.09 87.0781 396.293 87.8359C396.496 88.5859 396.598 89.4062 396.598 90.2969V91.2695H387.129V89.5H394.43V89.3359C394.398 88.7734 394.281 88.2266 394.078 87.6953C393.883 87.1641 393.57 86.7266 393.141 86.3828C392.711 86.0391 392.125 85.8672 391.383 85.8672C390.891 85.8672 390.438 85.9727 390.023 86.1836C389.609 86.3867 389.254 86.6914 388.957 87.0977C388.66 87.5039 388.43 88 388.266 88.5859C388.102 89.1719 388.02 89.8477 388.02 90.6133V91.1055C388.02 91.707 388.102 92.2734 388.266 92.8047C388.438 93.3281 388.684 93.7891 389.004 94.1875C389.332 94.5859 389.727 94.8984 390.188 95.125C390.656 95.3516 391.188 95.4648 391.781 95.4648C392.547 95.4648 393.195 95.3086 393.727 94.9961C394.258 94.6836 394.723 94.2656 395.121 93.7422L396.434 94.7852C396.16 95.1992 395.812 95.5938 395.391 95.9688C394.969 96.3438 394.449 96.6484 393.832 96.8828C393.223 97.1172 392.5 97.2344 391.664 97.2344ZM408.293 94.75L411.551 84.3203H412.98L412.699 86.3945L409.383 97H407.988L408.293 94.75ZM406.102 84.3203L408.879 94.8672L409.078 97H407.613L403.934 84.3203H406.102ZM416.098 94.7852L418.746 84.3203H420.902L417.223 97H415.77L416.098 94.7852ZM413.297 84.3203L416.484 94.5742L416.848 97H415.465L412.055 86.3711L411.773 84.3203H413.297ZM425.484 84.3203V97H423.305V84.3203H425.484ZM423.141 80.957C423.141 80.6055 423.246 80.3086 423.457 80.0664C423.676 79.8242 423.996 79.7031 424.418 79.7031C424.832 79.7031 425.148 79.8242 425.367 80.0664C425.594 80.3086 425.707 80.6055 425.707 80.957C425.707 81.293 425.594 81.582 425.367 81.8242C425.148 82.0586 424.832 82.1758 424.418 82.1758C423.996 82.1758 423.676 82.0586 423.457 81.8242C423.246 81.582 423.141 81.293 423.141 80.957ZM434.273 84.3203V85.9844H427.418V84.3203H434.273ZM429.738 81.2383H431.906V93.8594C431.906 94.2891 431.973 94.6133 432.105 94.832C432.238 95.0508 432.41 95.1953 432.621 95.2656C432.832 95.3359 433.059 95.3711 433.301 95.3711C433.48 95.3711 433.668 95.3555 433.863 95.3242C434.066 95.2852 434.219 95.2539 434.32 95.2305L434.332 97C434.16 97.0547 433.934 97.1055 433.652 97.1523C433.379 97.207 433.047 97.2344 432.656 97.2344C432.125 97.2344 431.637 97.1289 431.191 96.918C430.746 96.707 430.391 96.3555 430.125 95.8633C429.867 95.3633 429.738 94.6914 429.738 93.8477V81.2383ZM438.984 79V97H436.816V79H438.984ZM438.469 90.1797L437.566 90.1445C437.574 89.2773 437.703 88.4766 437.953 87.7422C438.203 87 438.555 86.3555 439.008 85.8086C439.461 85.2617 440 84.8398 440.625 84.543C441.258 84.2383 441.957 84.0859 442.723 84.0859C443.348 84.0859 443.91 84.1719 444.41 84.3438C444.91 84.5078 445.336 84.7734 445.688 85.1406C446.047 85.5078 446.32 85.9844 446.508 86.5703C446.695 87.1484 446.789 87.8555 446.789 88.6914V97H444.609V88.668C444.609 88.0039 444.512 87.4727 444.316 87.0742C444.121 86.668 443.836 86.375 443.461 86.1953C443.086 86.0078 442.625 85.9141 442.078 85.9141C441.539 85.9141 441.047 86.0273 440.602 86.2539C440.164 86.4805 439.785 86.793 439.465 87.1914C439.152 87.5898 438.906 88.0469 438.727 88.5625C438.555 89.0703 438.469 89.6094 438.469 90.1797ZM461.25 97.2344C460.367 97.2344 459.566 97.0859 458.848 96.7891C458.137 96.4844 457.523 96.0586 457.008 95.5117C456.5 94.9648 456.109 94.3164 455.836 93.5664C455.562 92.8164 455.426 91.9961 455.426 91.1055V90.6133C455.426 89.582 455.578 88.6641 455.883 87.8594C456.188 87.0469 456.602 86.3594 457.125 85.7969C457.648 85.2344 458.242 84.8086 458.906 84.5195C459.57 84.2305 460.258 84.0859 460.969 84.0859C461.875 84.0859 462.656 84.2422 463.312 84.5547C463.977 84.8672 464.52 85.3047 464.941 85.8672C465.363 86.4219 465.676 87.0781 465.879 87.8359C466.082 88.5859 466.184 89.4062 466.184 90.2969V91.2695H456.715V89.5H464.016V89.3359C463.984 88.7734 463.867 88.2266 463.664 87.6953C463.469 87.1641 463.156 86.7266 462.727 86.3828C462.297 86.0391 461.711 85.8672 460.969 85.8672C460.477 85.8672 460.023 85.9727 459.609 86.1836C459.195 86.3867 458.84 86.6914 458.543 87.0977C458.246 87.5039 458.016 88 457.852 88.5859C457.688 89.1719 457.605 89.8477 457.605 90.6133V91.1055C457.605 91.707 457.688 92.2734 457.852 92.8047C458.023 93.3281 458.27 93.7891 458.59 94.1875C458.918 94.5859 459.312 94.8984 459.773 95.125C460.242 95.3516 460.773 95.4648 461.367 95.4648C462.133 95.4648 462.781 95.3086 463.312 94.9961C463.844 94.6836 464.309 94.2656 464.707 93.7422L466.02 94.7852C465.746 95.1992 465.398 95.5938 464.977 95.9688C464.555 96.3438 464.035 96.6484 463.418 96.8828C462.809 97.1172 462.086 97.2344 461.25 97.2344ZM476.191 94.832V88.3047C476.191 87.8047 476.09 87.3711 475.887 87.0039C475.691 86.6289 475.395 86.3398 474.996 86.1367C474.598 85.9336 474.105 85.832 473.52 85.832C472.973 85.832 472.492 85.9258 472.078 86.1133C471.672 86.3008 471.352 86.5469 471.117 86.8516C470.891 87.1562 470.777 87.4844 470.777 87.8359H468.609C468.609 87.3828 468.727 86.9336 468.961 86.4883C469.195 86.043 469.531 85.6406 469.969 85.2812C470.414 84.9141 470.945 84.625 471.562 84.4141C472.188 84.1953 472.883 84.0859 473.648 84.0859C474.57 84.0859 475.383 84.2422 476.086 84.5547C476.797 84.8672 477.352 85.3398 477.75 85.9727C478.156 86.5977 478.359 87.3828 478.359 88.3281V94.2344C478.359 94.6562 478.395 95.1055 478.465 95.582C478.543 96.0586 478.656 96.4688 478.805 96.8125V97H476.543C476.434 96.75 476.348 96.418 476.285 96.0039C476.223 95.582 476.191 95.1914 476.191 94.832ZM476.566 89.3125L476.59 90.8359H474.398C473.781 90.8359 473.23 90.8867 472.746 90.9883C472.262 91.082 471.855 91.2266 471.527 91.4219C471.199 91.6172 470.949 91.8633 470.777 92.1602C470.605 92.4492 470.52 92.7891 470.52 93.1797C470.52 93.5781 470.609 93.9414 470.789 94.2695C470.969 94.5977 471.238 94.8594 471.598 95.0547C471.965 95.2422 472.414 95.3359 472.945 95.3359C473.609 95.3359 474.195 95.1953 474.703 94.9141C475.211 94.6328 475.613 94.2891 475.91 93.8828C476.215 93.4766 476.379 93.082 476.402 92.6992L477.328 93.7422C477.273 94.0703 477.125 94.4336 476.883 94.832C476.641 95.2305 476.316 95.6133 475.91 95.9805C475.512 96.3398 475.035 96.6406 474.48 96.8828C473.934 97.1172 473.316 97.2344 472.629 97.2344C471.77 97.2344 471.016 97.0664 470.367 96.7305C469.727 96.3945 469.227 95.9453 468.867 95.3828C468.516 94.8125 468.34 94.1758 468.34 93.4727C468.34 92.793 468.473 92.1953 468.738 91.6797C469.004 91.1562 469.387 90.7227 469.887 90.3789C470.387 90.0273 470.988 89.7617 471.691 89.582C472.395 89.4023 473.18 89.3125 474.047 89.3125H476.566ZM489.152 93.6367C489.152 93.3242 489.082 93.0352 488.941 92.7695C488.809 92.4961 488.531 92.25 488.109 92.0312C487.695 91.8047 487.07 91.6094 486.234 91.4453C485.531 91.2969 484.895 91.1211 484.324 90.918C483.762 90.7148 483.281 90.4688 482.883 90.1797C482.492 89.8906 482.191 89.5508 481.98 89.1602C481.77 88.7695 481.664 88.3125 481.664 87.7891C481.664 87.2891 481.773 86.8164 481.992 86.3711C482.219 85.9258 482.535 85.5312 482.941 85.1875C483.355 84.8438 483.852 84.5742 484.43 84.3789C485.008 84.1836 485.652 84.0859 486.363 84.0859C487.379 84.0859 488.246 84.2656 488.965 84.625C489.684 84.9844 490.234 85.4648 490.617 86.0664C491 86.6602 491.191 87.3203 491.191 88.0469H489.023C489.023 87.6953 488.918 87.3555 488.707 87.0273C488.504 86.6914 488.203 86.4141 487.805 86.1953C487.414 85.9766 486.934 85.8672 486.363 85.8672C485.762 85.8672 485.273 85.9609 484.898 86.1484C484.531 86.3281 484.262 86.5586 484.09 86.8398C483.926 87.1211 483.844 87.418 483.844 87.7305C483.844 87.9648 483.883 88.1758 483.961 88.3633C484.047 88.543 484.195 88.7109 484.406 88.8672C484.617 89.0156 484.914 89.1562 485.297 89.2891C485.68 89.4219 486.168 89.5547 486.762 89.6875C487.801 89.9219 488.656 90.2031 489.328 90.5312C490 90.8594 490.5 91.2617 490.828 91.7383C491.156 92.2148 491.32 92.793 491.32 93.4727C491.32 94.0273 491.203 94.5352 490.969 94.9961C490.742 95.457 490.41 95.8555 489.973 96.1914C489.543 96.5195 489.027 96.7773 488.426 96.9648C487.832 97.1445 487.164 97.2344 486.422 97.2344C485.305 97.2344 484.359 97.0352 483.586 96.6367C482.812 96.2383 482.227 95.7227 481.828 95.0898C481.43 94.457 481.23 93.7891 481.23 93.0859H483.41C483.441 93.6797 483.613 94.1523 483.926 94.5039C484.238 94.8477 484.621 95.0938 485.074 95.2422C485.527 95.3828 485.977 95.4531 486.422 95.4531C487.016 95.4531 487.512 95.375 487.91 95.2188C488.316 95.0625 488.625 94.8477 488.836 94.5742C489.047 94.3008 489.152 93.9883 489.152 93.6367ZM499.43 97.2344C498.547 97.2344 497.746 97.0859 497.027 96.7891C496.316 96.4844 495.703 96.0586 495.188 95.5117C494.68 94.9648 494.289 94.3164 494.016 93.5664C493.742 92.8164 493.605 91.9961 493.605 91.1055V90.6133C493.605 89.582 493.758 88.6641 494.062 87.8594C494.367 87.0469 494.781 86.3594 495.305 85.7969C495.828 85.2344 496.422 84.8086 497.086 84.5195C497.75 84.2305 498.438 84.0859 499.148 84.0859C500.055 84.0859 500.836 84.2422 501.492 84.5547C502.156 84.8672 502.699 85.3047 503.121 85.8672C503.543 86.4219 503.855 87.0781 504.059 87.8359C504.262 88.5859 504.363 89.4062 504.363 90.2969V91.2695H494.895V89.5H502.195V89.3359C502.164 88.7734 502.047 88.2266 501.844 87.6953C501.648 87.1641 501.336 86.7266 500.906 86.3828C500.477 86.0391 499.891 85.8672 499.148 85.8672C498.656 85.8672 498.203 85.9727 497.789 86.1836C497.375 86.3867 497.02 86.6914 496.723 87.0977C496.426 87.5039 496.195 88 496.031 88.5859C495.867 89.1719 495.785 89.8477 495.785 90.6133V91.1055C495.785 91.707 495.867 92.2734 496.031 92.8047C496.203 93.3281 496.449 93.7891 496.77 94.1875C497.098 94.5859 497.492 94.8984 497.953 95.125C498.422 95.3516 498.953 95.4648 499.547 95.4648C500.312 95.4648 500.961 95.3086 501.492 94.9961C502.023 94.6836 502.488 94.2656 502.887 93.7422L504.199 94.7852C503.926 95.1992 503.578 95.5938 503.156 95.9688C502.734 96.3438 502.215 96.6484 501.598 96.8828C500.988 97.1172 500.266 97.2344 499.43 97.2344Z" fill="#222222"/>
<defs>
<clipPath id="clip0_0_1">
<rect width="144" height="24" fill="white" transform="translate(33 33)"/>
</clipPath>
<clipPath id="clip1_0_1">
<rect width="24" height="24" fill="white" transform="translate(871 57)"/>
</clipPath>
</defs>
</svg>
